<svg width="413" height="113" viewBox="0 0 413 113" fill="none" xmlns="http://www.w3.org/2000/svg">
<g clip-path="url(#clip0_71_266)">
<path d="M85.6118 77.0872C80.5702 72.3533 69.7438 75.828 67.2964 81.8779C65.2371 86.9716 65.9472 91.4404 62.4867 96.9506C54.8462 109.117 36.332 107.19 30.3057 94.2854C23.3848 79.4683 17.9739 62.1091 11.5358 46.7808C8.91324 40.532 0.628923 25.3978 0.0939931 19.8733C-1.5108 3.22422 17.2212 -6.00214 29.6619 4.98523C32.3224 7.33324 33.5248 10.2209 35.0538 13.3216C40.5735 24.5267 44.782 36.4372 50.5336 47.5477C55.8972 53.5313 68.4562 51.3916 69.2136 42.6008C69.6254 37.7911 64.2809 29.4689 62.695 24.5031C56.0155 3.57926 84.3526 -11.3562 96.1258 11.4281C104.959 28.5269 111.322 47.8506 120.094 65.0962C127.426 85.291 103.25 100.08 90.0475 83.7809C88.5279 81.9016 87.1693 78.5547 85.6118 77.0919V77.0872Z" fill="#0579FE"/>
<path d="M148.443 39.5067H162.02L168.969 62.1726C170.143 66.3432 171.213 70.9398 172.179 75.8583C173.14 70.7268 174.106 67.413 175.815 62.1726L183.086 39.5067H196.345L203.404 62.1726C204.043 64.3123 206.182 72.2227 206.826 75.7494C207.683 71.7919 209.392 65.4863 210.353 62.1726L217.411 39.5067H231.206L212.924 92.3275H200.734L193.462 69.4486C191.323 62.4992 190.149 57.4718 189.718 54.8019C189.183 57.2636 188.222 61.0033 185.547 69.6616L178.276 92.3275H165.551L148.443 39.5067Z" fill="black"/>
<path d="M236.891 75.8583C236.891 66.1301 243.95 60.0329 256.457 59.0719L272.282 57.8979V56.7239C272.282 49.5615 268.007 46.6738 261.375 46.6738C253.678 46.6738 249.398 49.8834 249.398 55.441H238.278C238.278 43.9992 247.689 36.5149 262.014 36.5149C276.339 36.5149 285.002 44.2122 285.002 58.8636V90.9405H273.56L272.599 83.1343C270.355 88.5877 263.188 92.3275 254.956 92.3275C243.727 92.3275 236.887 85.8042 236.887 75.863L236.891 75.8583ZM272.391 69.548V66.7692L261.38 67.6261C253.252 68.374 250.151 71.0487 250.151 75.3234C250.151 80.133 253.361 82.4858 259.24 82.4858C267.259 82.4858 272.391 77.6761 272.391 69.548Z" fill="black"/>
<path d="M290.683 92.3228V12.7744H303.62V61.6377L324.151 39.5067H340.512L320.411 60.4637L340.086 92.3275H325.117L311.322 70.0877L303.625 78.1069V92.3275H290.687L290.683 92.3228Z" fill="black"/>
<path d="M374.421 36.7327C390.781 36.7327 402.649 48.0656 402.649 64.5301C402.649 80.9946 390.781 92.3275 374.421 92.3275C358.06 92.3275 346.192 80.9946 346.192 64.5301C346.192 48.0656 358.06 36.7327 374.421 36.7327ZM374.421 80.6727C383.401 80.6727 389.602 74.1494 389.602 64.5254C389.602 54.9014 383.401 48.3828 374.421 48.3828C365.44 48.3828 359.239 54.9061 359.239 64.5254C359.239 74.1446 365.44 80.6727 374.421 80.6727Z" fill="black"/>
<path d="M404.13 36.5579C408.183 36.5579 411.469 33.245 411.469 29.1584C411.469 25.0717 408.183 21.7589 404.13 21.7589C400.077 21.7589 396.791 25.0717 396.791 29.1584C396.791 33.245 400.077 36.5579 404.13 36.5579Z" stroke="black" stroke-width="1.3681" stroke-miterlimit="10"/>
<path d="M401.233 32.9424V25.3693C401.233 25.2825 401.299 25.2161 401.385 25.2161H404.216C405.989 25.2161 407.027 26.1199 407.027 27.6724C407.027 28.6733 406.586 29.4035 405.756 29.7967C405.68 29.8325 405.644 29.9193 405.68 30.001L407.002 32.876C407.047 32.9782 406.976 33.0956 406.865 33.0956H405.705C405.644 33.0956 405.594 33.0599 405.568 33.0037L404.322 30.241C404.297 30.1848 404.241 30.1491 404.186 30.1491H402.757C402.671 30.1491 402.605 30.2155 402.605 30.3023V32.9373C402.605 33.0241 402.539 33.0905 402.453 33.0905H401.39C401.304 33.0905 401.238 33.0241 401.238 32.9373L401.233 32.9424ZM402.6 28.7805C402.6 28.8673 402.666 28.9337 402.752 28.9337H404.216C405.082 28.9337 405.594 28.469 405.594 27.6724C405.594 26.8757 405.082 26.4417 404.216 26.4417H402.752C402.666 26.4417 402.6 26.508 402.6 26.5949V28.7805Z" fill="black"/>
</g>
<defs>
<clipPath id="clip0_71_266">
<rect width="413" height="112.447" fill="white"/>
</clipPath>
</defs>
</svg>
