<?xml version="1.0" encoding="UTF-8"?><svg id="Layer_2" xmlns="http://www.w3.org/2000/svg" viewBox="0 0 598.28 835.05"><defs><style>.cls-1{fill:#fff;}</style></defs><g id="Layer_1-2"><g id="greg"><path d="M516.07,80.02c3.87,2.32,8.1,7.71,10.8,11.7,21.18,31.36,10.96,78.51-25.84,91.93-10.03,71.44-13.44,177.63-106.92,185.17l-.1,3.33c37.88,17.76,86.01,27.78,118.95,54.16,58.33,46.73,60.53,162.07,84.65,229.12,3.8,9.39-9.24,11.43-16.03,14.06-24.66,9.54-56.51,18.49-82.51,23.47-3.08.59-15.07,3.7-16.57,1.54l15.31-155.45-4.16-1.37-33.73,295.49c-6.82-.59-13.73.95-20.31,1.18-48.73,1.75-98.37-.24-147.01-1.09-57.89-1.01-120.77-.34-177.93-9.07-2.76-.42-11.02-1.68-12.17-3.88l22.47-130.78-96.3-22.13c-10.1,38.11-17.57,77.14-21.61,116.46-.35,3.4-.62,20.05-1.96,21.02-4.94,3.59-5.19-6.29-5.08-9.08.46-12.28,2.56-27.42,4.18-39.77,3.89-29.69,10.91-58.83,16.91-88.11.86-5.37-10.71-4.7-11.91-6.58-.38-2.37-.25-4.85-.02-7.24,1.68-17.73,10.13-45.12,14.56-63.37,11.06-45.61,23.69-105.59,51.1-143.76,40.1-55.84,110.79-66.2,170.92-89.99,8.54-4.87,13.61-26.73,15.81-36.15,4.67-19.98,6.89-40.58,9.46-60.92-40-2.1-63.14-46.57-45.13-81.31-16.21-22.56-13.78-55.01-6.34-80.57,13.53-46.44,59.25-101.35,113.02-78.31C364.74-.16,400-8.28,434.72,10.94c32.31,17.88,42.8,45.7,85.81,43.11,3.23-.19,17.64-4.87,17.09,1.08-1.71,5.51-5.42,10.48-9.56,14.43-2.52,2.4-10.22,6.77-11.53,8.46-.57.74-.65,1.05-.47,1.99ZM460.05,107.01v17.48c0,.52-2.51,8.9-2.96,10.03-4.38,10.75-10.2,3.84-16.82.75-15.44-7.19-30.84-14.47-46.23-21.75l-36.97-21.5c-4.41,25.94-22.23,50.85-46.84,61.1-1.84,16.3-7.1,32.97-15.36,47.09-16.76,28.66-16.1,7.25-23.62-7.98-15.65-31.72-46.32-19.39-45.23,13.22.88,26.55,22.53,47.82,49.4,47.55l1.51,1.49c.59,9.26-.85,18.51-2,27.69-2.7,21.38-7.26,45.11-14.59,65.35-1.91,5.28-7.03,12.28-5.51,16.92,12.73,38.69,79.38,57.86,113.9,42.42,16.79-7.51,18.2-20.22,18.89-37.16-.9-1.29-13.94-1.7-16.81-2.23-23.37-4.32-47.66-17.82-63.27-35.69-3.38-3.87-18.41-21.34-6.47-20.53,36.66,59.42,124.03,72.05,162.79,6.84,18.61-31.31,29.84-104.78,31.24-141.63,1.1-29.14-10.78-53.34-35.04-69.47ZM172.05,582.55l-4.95.05-19.52,107.87c-2.99,2.95-12.42-.62-16.52-.02-4.74,4.58,20.6,10.74,21.5,3l19.49-110.9Z"/><path class="cls-1" d="M172.05,582.55l-19.49,110.9c-.9,7.74-26.25,1.58-21.5-3,4.1-.6,13.53,2.97,16.52.02l19.52-107.87,4.95-.05Z"/><g id="face"><path id="mouthgreg" d="M438.75,303.53c-1.34,1.57-10.44,4.95-12.9,5.58-14.08,3.61-32.06,2.44-45.48-3.11-5.18-2.15-26.83-13.94-25.18-20.45,1.88-7.45,9.02,2.4,11.39,4.26,16.41,12.8,37.05,17.5,57.48,12.52,3.63-.88,10.63-4.78,13.49-4.54,3.24.27,2.93,3.7,1.19,5.74Z"/><path id="nosegreg" d="M417.57,208.12c2.69.22,5.08,13.09,5.8,15.96,2.28,9.08,5.05,20.42,6.39,29.58,1.47,10.06,3.01,21.26-10.3,23.1-4.46.62-18.49.69-18.51-5.4-.02-6.57,6.08-1.92,9.56-1.47,4.74.6,14.08.92,14.49-5.57l-10.88-50.03c-.7-3.29.24-5.22,3.44-6.16Z"/><path id="lefteyegreg" d="M357.37,224.59c-8.96-10,1.52-37.62,13.13-24.61,10.41,11.67-1.27,37.85-13.13,24.61Z"/><path id="lefteyebrowgreg" d="M394.96,170.86c-1.29,2.15-7.12-1.66-9.13-2.19-12.6-3.29-28.75-4.17-40.12,3.44-5.18,3.47-5.29,12.27-11.73,10.4-3.3-5.6,3.89-12.74,8.15-15.97,11.61-8.78,30.41-9.58,43.87-5.04,3.43,1.16,11.89,4.46,8.96,9.36Z"/><path id="righteyegreg" d="M448.82,203.1c13.35-1.75,14.38,28.85.73,28.85-12.35,0-12.94-27.25-.73-28.85Z"/><path id="righteyebrowgreg" d="M477.25,184.72c-.42-.25-.82-2.28-2.21-3.25-6.03-4.22-15.08-7.27-22.44-7.57-3.43-.14-16.55,2.32-17.48.97-2.02-2.92,2.44-5.64,4.92-6.44,10.32-3.32,25.69-.24,35.05,4.97,3.78,2.11,9.5,5.64,7.54,10.59-.84,1.14-4.23,1.41-5.39.72Z"/><path d="M268.01,225.87l-4.81-1.12c.62-9.72-3.2-24.93-12.18-30.28-3.89-2.32-11-.78-9.56-6.6,1.36-5.49,9.73-1.9,12.94.23,11.14,7.41,17.03,25.08,13.63,37.77Z"/></g></g></g></svg>