<?xml version="1.0" encoding="UTF-8"?><svg id="Layer_2" xmlns="http://www.w3.org/2000/svg" viewBox="0 0 917.45 164.25"><defs><style>.cls-1{fill:#fff;}</style></defs><g id="Layer_1-2"><path d="M731.23.27c41.57-2.96,122.03,18.7,156.37,42.85,14.44,10.16,37.71,32.4,27.21,51.82-7.65,14.15-21.96,7.77-34.32,11.64-28.21,8.83-40.8,51.74-64.87,57-13.86,3.03-27.17-4.35-34.76-15.74-1.34-.33-5.46,4.64-7.13,5.82-15.02,10.57-32.08,8-42.79-6.8-15.57,18.63-39.05,16.31-51.94-3.93-24.45,19.2-50.66,2.11-49.49-27.61,1.9-48.49,51.06-111.44,101.73-115.05ZM727.22,12.24c-34.11,3.84-62.86,38.15-76.17,67.69-6.82,15.13-19.56,49.76,1.76,58.11,21.88,8.57,26.7-21.03,31.93-34.41,6.88-17.61,15.84-34.43,27.76-49.16,2.31-2.85,10.53-13.14,13.5-13.56,3.51-.5,7.27,2.75,6.29,6.3-.65,2.37-12.68,15.26-15.25,18.79-8.37,11.52-16.25,25.3-21.31,38.63-5.12,13.48-14.61,36.55,5.3,42.14,23.5,6.6,29.16-27.37,36.23-42.57,7.63-16.42,27.6-46.22,42.09-56.81,5.86-4.28,11.44.42,8.83,5.76-2.01,4.12-15.48,16.01-19.74,21.28-10.98,13.56-23.44,34.06-28.02,50.91-2.21,8.14-3.31,13.71,4.52,19.49,13.13,9.7,25.43-.04,31.98-11.96,14.14-25.73,22.11-40.87,44.91-60.98,5.97-5.27,15.81-14.51,16.02,0-14.47,13.42-29.71,26.79-40.29,43.67-7.13,11.37-14.23,24.06-.13,33.71,21.2,14.51,34.57-13.97,45.38-26.42,8.78-10.11,24.27-24.28,37.42-27.52,11.7-2.88,30.7,3.03,24.75-16.64-2.77-9.17-14.72-20.06-22.38-25.57-32.02-22.99-116.62-45.24-155.39-40.87Z"/><path class="cls-1" d="M727.22,12.24c38.77-4.37,123.37,17.88,155.39,40.87,7.66,5.5,19.61,16.39,22.38,25.57,5.95,19.67-13.05,13.76-24.75,16.64-13.14,3.24-28.64,17.41-37.42,27.52-10.81,12.45-24.18,40.94-45.38,26.42-14.1-9.66-7-22.34.13-33.71,10.58-16.88,25.82-30.26,40.29-43.67-.21-14.51-10.06-5.26-16.02,0-22.8,20.12-30.77,35.25-44.91,60.98-6.55,11.92-18.85,21.66-31.98,11.96-7.83-5.78-6.73-11.35-4.52-19.49,4.58-16.85,17.04-37.35,28.02-50.91,4.27-5.27,17.73-17.16,19.74-21.28,2.61-5.34-2.97-10.04-8.83-5.76-14.49,10.59-34.46,40.38-42.09,56.81-7.07,15.2-12.73,49.17-36.23,42.57-19.91-5.59-10.42-28.67-5.3-42.14,5.07-13.33,12.94-27.11,21.31-38.63,2.57-3.54,14.6-16.42,15.25-18.79.98-3.55-2.78-6.81-6.29-6.3-2.97.43-11.2,10.71-13.5,13.56-11.92,14.74-20.88,31.56-27.76,49.16-5.23,13.38-10.04,42.98-31.93,34.41-21.32-8.35-8.58-42.98-1.76-58.11,13.31-29.54,42.06-63.85,76.17-67.69Z"/><path d="M237.96,141.86c-10.68,20.77-36.22,23.79-51.62,6.04-9.72,8.48-19.04,14.86-32.58,11.66-8.06-1.9-11.95-7.22-18.22-11.75-8.55,12.66-21.59,19.24-36.92,14.94-22.14-6.22-34.53-47.11-63.72-56.16-12.38-3.84-31.59,2.17-34.49-16.46C-5.04,55.11,45.06,31.67,71.56,21.93,109.9,7.84,175.23-9.6,213.92,6.49c36.09,15,81.71,79.86,75.49,119.42-3.07,19.5-23.15,30.29-41.2,22.12-3.86-1.75-6.22-5.14-10.26-6.16ZM103.7,80.25c10.77,10.81,21.92,24.68,29.49,37.94,6.61,11.58,11.41,31.06,28.26,30.67,8.28-.19,18.61-8.2,17.31-17.26-2.57-17.88-23.24-48.91-35.23-62.71-2.37-2.72-12.71-11.62-13.33-13.69-1.4-4.69,3.29-8.86,7.8-6.77,2.6,1.21,13.41,13.91,15.98,17,10.92,13.11,21.37,29.08,28.17,44.76,5.59,12.88,8.65,34.71,25.55,37.41,9.88,1.57,22.27-8.03,22.31-18.25.06-17.43-17.44-48.15-27.66-62.33-2.5-3.47-15.48-18.28-15.98-20.06-1.59-5.75,5.91-8.01,11.13-3.06,14.14,13.41,30.09,42.49,37.18,60.73,5.31,13.65,7.59,35.91,27.72,34.23,15.99-1.34,17.45-18.71,15.2-31.19-6.33-34.97-41.61-84.54-77.43-93.4C159.46,4.19,61,29.46,28.65,56.95c-7.62,6.47-20.46,20.16-17.06,31,2.59,8.28,11.56,5.34,17.91,6.06,15.89,1.8,31.15,14.85,41.61,26.32,12.2,13.38,25.02,42.27,47.27,29.34,5.49-3.19,10.3-9.6,9.58-16.22-1.32-12.22-24.32-38.5-33.38-47.58-2.98-2.99-14.75-11.52-15.35-14.7-.68-3.55,2.53-8.07,6.14-7.12,1.3.34,16.18,14.04,18.34,16.2Z"/><path class="cls-1" d="M103.7,80.25c-2.15-2.16-17.04-15.86-18.34-16.2-3.6-.95-6.81,3.57-6.14,7.12.61,3.18,12.37,11.71,15.35,14.7,9.06,9.08,32.05,35.36,33.38,47.58.72,6.63-4.1,13.03-9.58,16.22-22.25,12.93-35.07-15.96-47.27-29.34-10.46-11.47-25.72-24.52-41.61-26.32-6.35-.72-15.32,2.22-17.91-6.06-3.39-10.84,9.44-24.53,17.06-31C61,29.46,159.46,4.19,200.16,14.26c35.81,8.86,71.1,58.43,77.43,93.4,2.26,12.48.79,29.85-15.2,31.19-20.13,1.68-22.41-20.57-27.72-34.23-7.09-18.24-23.03-47.31-37.18-60.73-5.21-4.94-12.71-2.69-11.13,3.06.49,1.78,13.47,16.59,15.98,20.06,10.22,14.18,27.72,44.91,27.66,62.33-.04,10.22-12.43,19.82-22.31,18.25-16.89-2.69-19.95-24.52-25.55-37.41-6.8-15.68-17.25-31.65-28.17-44.76-2.57-3.09-13.38-15.79-15.98-17-4.51-2.1-9.2,2.08-7.8,6.77.62,2.06,10.96,10.96,13.33,13.69,11.99,13.8,32.66,44.83,35.23,62.71,1.3,9.05-9.02,17.07-17.31,17.26-16.85.39-21.65-19.09-28.26-30.67-7.57-13.26-18.72-27.13-29.49-37.94Z"/></g></svg>