<?xml version="1.0" encoding="UTF-8"?><svg id="Layer_2" xmlns="http://www.w3.org/2000/svg" viewBox="0 0 1861.56 1282.82"><defs><style>.cls-1{fill:#fff;}</style></defs><g id="Layer_1-2"><g id="fingersilian"><path id="LOWERFINGER" d="M1549.75,1037.57c-3.68,2.12-31.04,17.92-24.62,23.21,4.46,3.68,31.66-14.4,37.47-17.16,6.8-3.23,30.78-10.13,33.77-12.79,1.28-1.14,2.23-1.68,1.73-3.71-.18-1.31-3.02-5.02-4.28-5.43-6.5-2.11-37.08,11.85-44.06,15.88Z"/><path id="MIDDLEFINGER" d="M1537.53,1023.13c6.13-3.4,12.17-7.74,18.69-10.37,4.61-1.86,21.97-5.03,23.98-6.45,3.25-2.31,3.05-7.7-.63-9.4-5.94-2.75-27.61,4.92-33.98,8.01-5.03,2.44-31.54,18.59-22.1,25.33,5.12,3.66,11.77-5.85,14.04-7.12Z"/><path id="UPPERFINGER" d="M1554.03,982.67c-5.26-3.71-16.92-.71-22.59,1.51-6.56,2.57-22.14,12.37-17.22,18.52,1.21,1.51,9.59-3.66,11.23-4.7,8.17-5.21,18.94-6.99,26.33-9.96,3.86-1.55,5.17-3.31,2.25-5.37Z"/></g><g id="pencil_icon"><path d="M1802.87,513.98c-11.99,10.4-28.07,21.65-44.02,24.71-20.43,3.92-14.86-11.02-11.21-24.43,8.77-32.22,24.4-38.5,47-59.82,7.59-7.16,25.13-29.09,33.62-31.83,9.74-3.14,22.58,11.1,28.2,18.38,7.85,10.18,6.09,12.24-1.57,21.51-12.51,15.13-36.91,38.38-52.01,51.47ZM1844.34,454.48c1.01-1.2,2.2-2.88,1.45-4.47l-13.59-12.97-12.1,10.52,15.71,15.7c2-3.44,6.41-6.27,8.54-8.78ZM1773.91,496.19c6.72,1.35,9.31,12,16.81,9.91,5.64-1.57,27.21-29,34.29-33.7l-15.48-13.95c-2.31.4-32.16,28.9-34.27,32.08-1.12,1.69-2.51,3.65-1.35,5.67ZM1760.44,524.55l16.52-9.11c-3.72-1.31-11.76-12.99-13.61-7.05l-2.91,16.16Z"/><path class="cls-1" d="M1773.91,496.19c-1.16-2.02.22-3.98,1.35-5.67,2.11-3.18,31.96-31.67,34.27-32.08l15.48,13.95c-7.08,4.7-28.65,32.13-34.29,33.7-7.5,2.09-10.08-8.56-16.81-9.91Z"/><path class="cls-1" d="M1844.34,454.48c-2.13,2.51-6.54,5.34-8.54,8.78l-15.71-15.7,12.1-10.52,13.59,12.97c.75,1.59-.44,3.27-1.45,4.47Z"/><path class="cls-1" d="M1760.44,524.55l2.91-16.16c1.84-5.94,9.89,5.74,13.61,7.05l-16.52,9.11Z"/></g><path d="M1334,111.74c-1.42,2.3-6.78,5.03-8.49,7.12-19.04,23.32-22.52,46.96-10.32,75.02,6.35,14.6,27.64,29.62,1.66,38.88-42.71,15.23-102.78-17.17-106.2-65.18-.62-8.68,3.38-46.78,16.83-43.44l4.24,4.28c1.33,4.88-4.88,15.89-5.99,21.55-10.19,51.82,44.61,80.32,89.05,69.15-26.16-29.32-28.44-87.8,4.2-113.36,9.93-7.78,22.19-5.67,15.01,5.98Z"/><path id="mouthilian" d="M1397.2,371.01c8.14,8.37-15.24,27.27-21.89,31.08-14.03,8.05-31.88,12.86-48.07,11.51-7.01-.58-30.77-5.78-24.15-15.77,4.94-7.46,11.16-.68,17.92.48,19.71,3.39,38.54.33,54.21-12.86,4.81-4.05,12.54-16.05,18.01-16.16,1.33.33,3.01.74,3.96,1.72Z"/><path id="noseilian" d="M1336.19,354.22c-.62,15.7-34.33,11.63-37.62.29-3.96-13.64,5.42-42.7,7.74-57.8,1.56-10.18-.62-28.14,14.71-12.84,1.17,13.02-12.66,54.56-9.32,64.14,2.63,7.54,19.34.04,24.49,6.21Z"/><path id="righteyebrowilian" d="M1384,223.7c12.4-1.2,24.65.04,36.45,4.05,4.84,1.64,21.5,9.08,10.29,14.53-5.86,2.85-28.34-6.2-38.92-5.9-7.92.23-32.44,8.53-35.66,7.69-5.29-1.37-6.96-7.57-3.28-11.74,3.36-3.8,25.25-8.06,31.12-8.63Z"/><path id="lefteyebrowilian" d="M1289.95,253.05c-18.23-.66-29.87-6.24-48.04.83-5.98,2.33-13.81,11.52-20.86,5.94-13.81-10.93,26.98-22.83,34.87-23.38,11.09-.77,38.82.21,34.03,16.61Z"/><path d="M1489.84,186.99c2.06-.66,3.62-.22,5.5.66,3.71,1.74,12.95,12.73,19.85,16.61,10.56,5.94,20.83,5.65,29.7,11.8-.05,17.94-29.05,5.5-38.17-.03-3.55-2.15-19.14-14.76-20.49-17.67-1.62-3.5-.09-10.18,3.61-11.37Z"/><path id="lefteyeilian" d="M1266.33,276.47c15.35-2.92,19.85,30.33,2.83,34.6-11.43,1.1-17.36-31.83-2.83-34.6Z"/><path id="righteyeilian" d="M1380.46,269.81c17.43-6.03,19.49,29.11,9.45,32.63-17.27,6.06-16.32-30.26-9.45-32.63Z"/><path class="cls-1" d="M694.09,975.34c5.25-5.93,30.52-15.56,31.07-21.23.82-8.4-26.86-20.31-30.78-28.94-1.5-3.3-.69-6.7,3.28-6.65,4.08.05,36.71,29.32,40.08,35.63.38,5.98-33.25,23.52-38.72,28.78-4.76.49-8.68-3.36-4.94-7.59Z"/><rect class="cls-1" x="608.98" y="947.9" width="101.87" height="9.12" transform="translate(-454.55 1269.7) rotate(-71.17)"/><path class="cls-1" d="M623.98,921.88c6.87,7.08-30.12,26.67-33.07,32.39-1.15,5.3,35.41,19.77,33.07,28-.35,1.22-2.49,2.49-4.06,2.53-2.66.06-32.82-21.27-35.55-24.16-1.68-1.78-3.37-3.54-3.11-6.23.54-5.65,29.74-26.5,36.03-30.11,2.16-1.24,3.26-3.34,6.68-2.41Z"/><path class="cls-1" d="M1461.41,799.36c8.65,1.47,11.09,12.59,13.27,19.85,24.02,79.99,41.42,168.1,61.54,249.74,2.48,10.08,7.86,19.52,7.2,30.07-152.67-.74-305.3-2.56-458.12-1.6l-13.29-3.28-71.97-294.77h461.37ZM1231.39,951.09c-4.75,5.56-12.34,10.67-15.81,18.14-1.76,3.8-10.21,36.7-9.83,39.19,1.86,12.34,18.27,4.58,25.71,1.51,13.21-5.45,19.94-11.65,29.52-21.82,14.61-15.5,38.77-41.95,50.22-59.07,7.09-10.6,9.71-15.25,3.29-27.56-6.25-11.97-18.08-16.54-30.06-9.14-9.54,5.89-29.43,32.32-38.13,42.19-4.76,5.41-10.04,10.86-14.91,16.56Z"/><path d="M1231.39,951.09c4.87-5.7,10.14-11.15,14.91-16.56,8.7-9.87,28.59-36.3,38.13-42.19,11.99-7.4,23.81-2.83,30.06,9.14,6.43,12.3,3.8,16.96-3.29,27.56-11.45,17.13-35.61,43.58-50.22,59.07-9.59,10.16-16.31,16.37-29.52,21.82-7.44,3.07-23.85,10.83-25.71-1.51-.38-2.49,8.07-35.39,9.83-39.19,3.47-7.47,11.05-12.58,15.81-18.14ZM1299.57,904c-2.27-1.33-6.71-.46-8.89,1.23l-57.99,63.01v3.28s13.45,11.53,13.45,11.53l57.93-67.89c1.66-1.66-3.97-10.84-4.5-11.15ZM1235.28,993.03c.61-.82-7.03-12.04-9.92-9.9l-3.32,14.9,13.24-4.99Z"/><path class="cls-1" d="M1299.57,904c.54.31,6.16,9.49,4.5,11.15l-57.93,67.89-13.45-11.53v-3.28s57.98-63.01,57.98-63.01c2.18-1.69,6.62-2.56,8.89-1.23Z"/><path class="cls-1" d="M1235.28,993.03l-13.24,4.99,3.32-14.9c2.89-2.14,10.54,9.09,9.92,9.9Z"/><path d="M1065.41,784.46c9.36-34.61,17.22-69.91,27.31-104.32,14.64-49.91,26.94-95.53,69.65-129.06,38.65-30.34,89.74-47.43,133.3-69.6l-32.99-20.81c-46.77-40.89-50.28-90.38-61.87-146.76-7.07-34.38-18.71-68.29-16.13-103.91-8.82-.24-26.6,15.65-34.08,10.04-5.03-3.77.86-9.76,4.36-12.44,5.03-3.85,32.99-15.82,37.99-13.4l3.73,4.63c2.13,19.25,1.6,39.01,4.75,58.17,7.75,47.16,20.69,100.09,35.06,145.42,36.35,77.14,119.96,99.35,181.74,35.23,5.93-6.15,13.8-24.56,22.46-14.08,4.42,8.82-18.79,29.24-25.38,34.66-23.63,19.44-51.77,32.23-83.18,29.88.9,47.37,26.88,79.17,76.84,74.3,36.74-3.58,82.86-37.38,88.44-75.53,1.93-13.2-3.29-11.61-7.08-20.27-15.32-34.97-21.21-108.13-10.33-144.47,3.25-10.85,14.45-10.18,14.42-.66-.01,3.65-6.27,16.32-.74,16.01,24.56-1.38,34.26-36.74,32.12-56.98-.24-2.29-4.57-21.59-8.08-19.21-3.08,13.35-34.5,34.32-46.37,28.94-8.74-3.97-13.37-32.13-14.74-41.56-.86-5.9,1.09-13.05-1.43-18.44-1.29-2.76-12.08-10.8-15.06-14.67-3.67-4.75-7.88-13.07-10.39-18.71-57.24,17.11-109.43-50.55-75.74-101.64,4.14-6.27,21.16-27.93,29.63-21.93,8.12,5.76-14.15,23.6-18.03,30.21-3.67,6.25-7.88,17.6-8.45,24.75-2.48,30.76,31.51,64.86,62.94,56.18,3.16-2.27-1.36-12.62,8.13-15.17,9.77-2.62,8.76,10.74,10.82,15.88,7.47,18.64,19.43,33.83,38.97,40.52,4.28,1.47,26.7,3.78,22.41,12.44-4.94,9.97-23.52,2.73-30.73-1.63.03,14.25,2.9,28.3,8.3,41.4,11.18-3.65,20.5-10.42,27.21-19.98,4.53-6.46,5.77-19.27,16.31-16.16,6.29,1.85,13.2,20.52,16.92,26.19,18.85-22.45,3.98-51.82,1.08-76.69,2.17-6.39,35.7-3.31,31.33-21.58-.39-1.63-23.99-10.78-29.78-15.27-26.51-20.58-23.54-50.94-38.57-77.34-23.06-40.5-74.86-61.78-119.41-45.48-8.93,3.27-16.75,11.02-26.75,9.48-46.55-29.38-98.81-39.69-144.21-1.53-27.33,22.97-35.19,62.61-72.15,75.24-6.41,2.19-31.15,4.68-32.92,10.25-3.46,10.9,17.67,20.66,25.96,21.77,4.36.58,15.24-2.91,16.71,4.66.94,4.84-12.2,11.67-16.36,16.3-20.03,22.28-12.04,54.27,15.13,66.07,6.86,2.98,27.65,5.27,28.99,10.85,4.11,17.17-31.82,3.37-39.2-.64-33.36-18.12-38.73-55.8-16.47-85.33-17.44-3.81-39.87-27.16-25.6-44.65,7.31-8.97,30.71-9.18,42.18-14.14,27.77-12.01,41.14-51.12,64.58-71.21,35.3-30.25,81.82-36.83,124.65-18.57,7.56,3.22,24.03,15.26,30.69,15.81,5.45.45,15.68-6.76,21.93-8.81,56.37-18.54,118.67,11.94,141.14,65.91,10.74,25.8,8.45,50.31,36.91,65.75,6.75,3.66,23.17,7.15,26.15,13.59,7.81,16.88-11.65,37.68-28.57,37.72,3.92,22.12,10.29,50.99-1.92,71.74-2.24,3.81-13.91,13.97-14.41,15.4-1.25,3.64-.09,11.76-1.01,17.2-3.97,23.56-24.49,46.31-48.88,47.99-2.29,29.57-.75,62.28,7.37,91,1.98,7.01,5.8,18.88,12,22.77,49.73,18.72,103.63,30.25,152.29,51.44,77.46,33.73,94.98,78.77,120.3,154.6,18.29,54.8,32.65,111.06,48.94,166.5.36,8.3-11.17,10.25-11.44,11.28,4.15,29.92,11.87,61.16,14.83,91.1,2.73,27.65,5.16,74.97-10,98.84-23.16,36.48-76.64,32.5-114.01,27.58-.71,7.62-4.89,15.29-12.32,18.35-16.15,6.65-53.09,13.56-71.8,17.64-27.01,5.9-49.26,10.77-77.49,10.44-161.92-1.87-322.93-4.16-485.17-3.53-8.01-1.09-15.77-6.49-19.28-13.84l-38.85-161.51c-4.65,9.42-16.57,15.18-26.69,16.39-30.07,3.59-66.02-2.3-96.72.19l-33.11,139.91c-2.27,10.06-10.99,15.86-20.88,17.21-23.92,3.26-58.94-.37-84.41.08-136.11,2.37-273.22,1.74-408.86,11.55l-159.25-28.07c-10.67-4.41-12.21-14.58-9.16-24.79-24.69,2.44-50.58,4.6-75.44,3.37-31.01-1.53-69.13-7.39-83.89-38.67-9.15-19.39-6.62-51.77-4.65-73.13,3.73-40.5,14.16-82.14,19.89-122.5.07-1.57-14.08-.24-14.28-8.3,15.45-53.43,29.89-107.45,47.87-160.11,26-76.17,39.45-108.48,114.89-145.1,38.06-18.48,83.57-35.43,123.98-48.27,6.24-1.98,28.05-5.77,30.54-9.21,13.2-34.63,15.6-72.29,20.1-108.87-6-3.28-12.2-3.38-18.84-6.36-33.7-15.15-49.29-59.05-35.49-92.79,1.68-4.1,7.7-11.14,7.78-13.67.08-2.69-6.49-14.12-7.77-18.67-18.73-66.71,19.18-164.3,96.4-169.31,10.53-.68,30.52,4.12,36.12,3.12,3.96-.71,21.56-13.52,28.27-16.58,38.88-17.72,87.43-12.47,123.57,9.52,29.01,17.66,51.41,52.05,88.83,53.7,8.47.37,17.44-4.77,24.05-1.02,7.23,9.83-13.97,25.97-21.68,30,.1,4.23,8.88,11.28,11.37,15.13,18.15,28.01,11.35,68.25-12.95,90.82-3.89,3.61-18.22,11.05-19.66,13.46-2.33,3.91-6.71,25.46-8.09,31.65-15.82,71.16-15.41,159.07-93.27,193.2l-33.07,9.14c38.33,10.66,79.93,26.09,115.42,44.42,48.7,25.15,72.26,46.82,91.67,98.77,18.44,49.34,31.15,102.83,45,153.69l2.18,2.42c.76-.05,1.28-1.29,1.66-1.29h59.64c1.54-1.19,2.12-1.7,2.17-3.74.16-6.4-2.69-16.96-2.98-23.6-.2-4.56-1.57-25.64,4.13-25.64h42.24c-5.9-23.48-20.14-46.35-34.82-65.36-17.96-23.25-41.14-42.13-55.97-68.23-20.9-36.79-25.77-87.12-35.6-128.32-4.15-17.39-9.94-34.59-14.53-51.88-.47-3.86,2.75-6.56,6.28-7.07,7.93-1.14,33.36,17.36,40.56,22.96,93.28,72.48,105.43,189.7,117.29,299.54l9.93.02c-3-60.91-4.28-120.23-24.38-178.45-9.62-27.86-24.73-54.23-30.86-83.39-10.2-48.56,3.99-102.55,10.93-150.8,4.87-8.54,10.94-4.63,16.1,1.28,38.38,44,71.34,133.78,67.95,191.98-2.72,46.75-25.89,89.22-29.78,132.48-2.48,27.53.96,59.2,1.62,86.9h9.96c.87-16.56.5-34.01,1.66-50.49,5.85-82.53,29.75-166.05,98.57-217.7,6.21-4.66,39.85-29.58,41.74-12.23l-28.44,111.6c-12.95,64.15-70.8,93.3-90.43,154.65-1.33,4.16-1.43,8.5-3.23,12.5h57.15c2.89,0,11.09,2.74,12.09,6.12,3.38,11.35-1.77,32.9-1.33,45.2h51.35ZM586.65,153.73c6.58,8.67,7.61,47.61-5.76,47.96-7.96-3.27-14.18-9.96-21.9-14.54-22.79-13.53-50.16-18.11-74.51-28.18l-28.7-16.83c-4.22,33.45-26,59.49-55.44,74.56-4.99,17.91-5.47,42.73-16.08,58.43-14.09,20.83-21.26-9.41-29.54-19.58-12.44-15.27-34.04-18.69-46.1-1.38-16.73,23.99-9.3,64.36,15.76,79.72,10.65,6.53,22.8,7.55,33.74,12.98-.71,30.35-4.26,62-10.83,91.63-3.24,14.63-6.04,35.9-20.81,42.34,19.1,62.26,122.32,93.75,169.88,47.26-1.55-13.98-2.07-28.61,4.15-41.59-26.7-.83-53.04-10.59-75.06-25.16-10.87-7.19-38.41-30.6-41.81-42.69-2.4-8.52,4.1-10.85,10.87-7.5,2.67,1.32,17.3,22.45,22.08,26.76,15.72,14.19,50.46,31.56,71.52,33.66,128.83,12.84,122.11-150.42,145-235.83,1.54-25.59-6.58-48.65-24.09-67.1l-22.35-14.89ZM909.67,613.93c9.86-43.11,25.31-82.8,21.34-128.08-3.22-36.8-31.33-113.31-56.42-140.63-1.47-1.6-1.47-3.56-4.66-2.78-4.5,35.61-12.56,73.81-9.74,109.87,3.14,40.12,25.22,74.62,36.71,112.31,4.41,14.47,7,29.61,10.29,44.37.41,1.83.02,5.35,2.47,4.93ZM879.85,713.27c-12.15-104.76-31.11-222.57-130.84-279.77,10.83,35.44,15.87,72.45,24.96,108.31,19.2,75.74,61.7,90.45,95.71,151.03l10.17,20.44ZM941.14,708.3c14.2-54.44,69.25-81.94,82.76-136.66l26.58-105.03c-44.71,27.23-77.17,75.03-93.55,124.19-9.49,28.47-18.65,82-17.42,111.74.08,2.01-1.26,6.15,1.63,5.76ZM1078.66,784.46h114.31c-2.63-16.26-5.99-32.71-8.07-49.05-2.21-17.41-6.74-44.51-6.97-61.04-.05-3.19-.3-7.03,2.46-9.27l8.92-.37,16.99,119.64,234.4.02c12.7,1.39,23.89,2.07,29.43,15.29l40.83,157.94c30.2-9.66,60.28,1.12,90.33-1.01,23.99-1.7,49.52-9.94,73.76-11.57l-10.15-54.43c-6.62-.17-12.4-.56-14.33-8.02-4.54-17.55-6.83-39.06-10.77-57.12-9.46-43.32-24.62-97.32-26.16-141.14-.26-7.54,3.34-20.67,10.78-10.69,3.78,5.08,6.13,42.12,7.78,51.82,2.62,15.42,7.45,30.43,8.48,46.16l24.45,105.55,150.74-41.42c-17.51-57.42-31.63-116.3-51.3-173.04-23.16-66.81-40.77-102.5-108.28-131.84-45.95-19.97-96.87-31.03-143.57-49.38-15.28,107.74-194.8,141.58-193.84,6.62-2.89-.28-5.53.02-8.33.79-17.54,4.83-58.42,26.67-76.75,35.87-80.03,40.14-98.29,61.08-124.48,147.11-11.31,37.16-19.1,75.49-30.65,112.57ZM289.87,1056.06c8.92.8,18.5,2.79,31.21,7.87,7.83,3.13,58.03,19.94,48.26,31.16-1.3,1.5-3.48,1.89-5.32,1.14-19.98-8.2-58.32-25.86-78.22-28.49M289.87,1056.06l-4.07,11.67c-11.05-1.46-20.8.6-31.28-.21-17.65-1.36-29.52-6.56-49.73-4.94-1.93.15-7.43.51-7.44,3.3,41.22,8.18,83.43,13.97,124.25,24.01,11.5,2.83,20.59,5.89,30.61,12.45l72.92-288.06c2.9-7.02,8.61-12.35,16.51-13.3l319.84-3.13,4.07-5.1h-128.39c-1.54-1.19-2.12-1.7-2.17-3.74-.09-3.42.96-12.76,1.35-16.94,2.56-27.57,7.84-55.15,9.98-82.82l-4.17-4.1c-4.98,1.09-6.65,46.57-7.5,53.78-2.1,17.93-5.78,35.75-6.6,53.83l-179.81-.07c-13.49.59-26.67,6.54-31.41,19.93-12.28,34.69-18.75,79.46-28.15,115.9-1.26,4.88-9.72,39.48-11.77,39.83-42.19-21.49-85,6.31-129.05,1.53l-159.51-19.29c-3.77-1.57-4.85-8.39-2.19-11.48,5.72-7.11,46.82,2.65,57.32,2.78,2.17.03,5.4.22,6.72-1.7l12.33-69.61-127.55-29.81c-3.9,29.66-10.63,59.16-14.71,88.78-9.3,67.56-22.48,121.77,65.16,126.5,25.37,1.37,57.62.46,82.88-1.74,17.17-1.49,39.43-8.24,55.92-6.17,7.64.96,16.08,5.39,23.6,6.2,17.6,1.91,29.12.58,42.02,1.74h0ZM1002.46,748.04h-162.35l3.49,37.9c18.06,1.77,37.2-3.13,55.11-1.27,8.42.88,15.63,2.37,18.88,10.99l-31.15,138.63c-.33,3.45.23,2.16,2.49,2.5,11.72,1.75,25.19-1.46,36.43-1.74,16.95-.41,42.51,2.52,57.96-.03,10.55-1.74,15.4-17.74,14.24-27.14-4.22-34.23-20.1-71.3-24.98-105.98.81-15.35,15.41-18.03,28.24-17.43l1.65-36.43ZM1448.91,799.36h-461.37l71.97,294.77,13.29,3.28c152.82-.96,305.45.87,458.12,1.6.66-10.55-4.72-19.99-7.2-30.07-20.12-81.63-37.52-169.75-61.54-249.74-2.18-7.25-4.62-18.38-13.27-19.85ZM1805.9,853.99l-127.56,33.13,9.95,54.63,53.56-6.7c4.93,4.96,2.37,10.32-3.47,12.87l-125.49,21.93c-32.93,2.05-66.09-5.69-98.54,1.69l6.65,26.47c-2.8-11.15,0,0,3.49,13.45,0,0,14.51,64.53,15.14,67.19,12.98-3.19,25.55-19.26,38.54-21.72,25.66-4.86,39.85-6.89,64.17-8.02,6.97-.32,18.34-1.35,25.16-1.3,19,.13,43.41,7.67,64.61,8.42,101.62,3.61,95.85-49.92,85.37-133.33-2.88-22.97-8.51-45.78-11.58-68.73ZM659.56,902.79l-32.91,96.4,8.64,2.94,32.91-96.4-8.64-2.94ZM681.6,975.34c-3.75,4.23.17,8.08,4.94,7.59,5.46-5.27,39.09-22.8,38.72-28.78-3.36-6.31-35.99-35.58-40.08-35.63-3.97-.04-4.78,3.35-3.28,6.65,3.92,8.63,31.59,20.54,30.78,28.94-.55,5.67-25.82,15.3-31.07,21.23ZM611.49,921.88c-3.42-.93-4.52,1.17-6.68,2.41-6.29,3.61-35.49,24.47-36.03,30.11-.26,2.69,1.43,4.46,3.11,6.23,2.73,2.89,32.89,24.22,35.55,24.16,1.57-.04,3.71-1.3,4.06-2.53,2.34-8.22-34.22-22.69-33.07-28,2.95-5.72,39.94-25.31,33.07-32.39ZM1696.57,1067.58c-7.54-3.03-19.98-5.41-44.83-4.18-16.46.81-50.22.72-75.65,9.98l-31.87,21.48c-.21,8.24,22.5,6.21,28.75,5.6,28.29-2.76,80.74-16.77,109.07-25.1,3.55-1.05,9.47-2.47,12.44-4.11,1.9-1.05,2.8.07,2.1-3.67Z"/><path id="mouth_greg" d="M474.43,369.16c7.01-1.98,11.21,8.5,16.26,12.96,17.33,15.33,44.91,17,65.87,8.54,9.09,6.09,3.68,11.61-4.3,15.01-21.12,9-50.89,2.38-68.21-11.95-4.74-3.92-21.94-21.08-9.62-24.57Z"/><path id="nosegreg" d="M543.92,286.39c3.73-1.25,8.13-.54,9.01,3.73-.41,20.04,24.94,68.72-6.4,73.4-26.72,3.98-28.03-15.94-1.45-13.03l2.48-2.48c1.06-3.19-.94-19.91-1.59-24.43-1.03-7.2-10.88-34.23-2.04-37.18Z"/><path id="lefteyebrowgreg" d="M476.15,223.66c8.52-1.08,47.17-.54,43.24,13.3-2.51,8.83-18.74.38-25.64-.26-10.1-.94-16.56.52-25.97,3.44-4.23,1.31-18.08,11.39-17.89-1.17.14-9.63,18.69-14.34,26.26-15.3Z"/><path id="righteyebrowgreg" d="M628.37,245.35c4.3,4.9,6.08,14.09-1.86,14.27-3.36.08-18.51-12.42-27.3-14.11-7.79-1.5-23.73,1.58-27.24-.89-12.02-8.46,13.49-14.96,19.64-14.82,8.45.2,31.12,9.12,36.75,15.54Z"/><path id="earisnidelinegreg" d="M357.48,314.07c-3.25-6.88-4.23-14.49-7.6-21.36-4.62-9.41-22.89-20.69-11.29-27.84,11.31-3.13,23.62,22.14,26.55,30.81,3.34,9.88,7.33,18.15-7.66,18.39Z"/><path id="lefteye_greg" d="M482.71,271.49c19.96-1.34,12.39,46.11-3.78,36.28-10.5-6.38-7.39-30.61,3.78-36.28Z"/><path id="righteye_greg" d="M585.39,279.8c15.03-4.57,15.72,25.57,7.19,33.73-15.87,15.2-21.29-29.44-7.19-33.73Z"/><path class="cls-1" d="M193.8,874.74l2.12.34c.84.13,1.67-.25,2.12-.96l2.22-3.52c.13-.21.23-.45.28-.69,9.54-44.87,16.71-90.41,26.61-135.19.67-3.04,2.51-15.69,6.69-14.81,2.06.44,3.14,4.53,2.2,6.73-.06.14-.11.27-.14.41l-29.6,150.06c-.07.36-.24.7-.48.98l-1.1,1.26c-.52.6-1.32.84-2.1.67-2.75-.61-6.66-.43-9.7-1.14-2.61-.62-1.77-4.55.87-4.13Z"/><g id="fingersgreg"><path id="LOWERFINGER-2" d="M351.63,1041.75c4.03,3.04,33.97,25.67,25.63,30.98-5.8,3.69-35.21-21.62-41.66-25.73-7.54-4.81-34.8-16.46-37.94-20.03-1.35-1.53-2.38-2.31-1.49-4.62.41-1.52,4.3-5.47,5.84-5.77,7.98-1.53,41.98,19.4,49.62,25.18Z"/><path id="MIDDLEFINGER-2" d="M366.62,1028.44c-6.59-5.1-12.89-11.29-20.06-15.57-5.07-3.02-24.89-9.89-26.98-11.93-3.39-3.3-2.18-9.6,2.45-10.92,7.47-2.15,31.53,10.79,38.45,15.57,5.46,3.78,33.66,27.55,21.35,33.75-6.68,3.36-12.76-9.01-15.2-10.9Z"/><path id="UPPERFINGER-2" d="M350.04,970.1c7.22-2.55,19.58,4.63,25.35,9,6.68,5.05,21.34,21.27,13.74,26.72-1.87,1.34-9.8-7.27-11.33-8.99-7.66-8.59-21.25-10.51-28.75-16.29-3.91-3.01-3.01-9.02.99-10.44Z"/></g><g id="code_icon"><rect x="62.41" y="452.96" width="101.96" height="14.29" rx="3.67" ry="3.67" transform="translate(-360.42 452.35) rotate(-75.22)"/><path d="M136.72,487.3c-3.39-7.3,16.29-16.94,27.09-23.52,3.82-2.32,4.02-7.78.42-10.43-10.58-7.81-30.75-20.11-17.99-26.37,2.14-1.05,4.7-.74,6.62.68,10.02,7.41,30.81,20.31,33.06,27.27,2.57,7.97-2.09,11.05-7.7,15.67-4.45,3.67-33.94,19.63-36.57,19.29h-.48c-1.85.03-3.67-.91-4.45-2.58Z"/><path d="M92.17,487.48c3.39-7.3-16.29-16.94-27.09-23.52-3.82-2.32-4.02-7.78-.42-10.43,10.58-7.81,30.75-20.11,17.99-26.37-2.14-1.05-4.7-.74-6.62.68-10.02,7.41-30.81,20.31-33.06,27.27-2.57,7.97,2.09,11.05,7.7,15.67,4.45,3.67,33.94,19.63,36.57,19.29h.48c1.85.03,3.67-.91,4.45-2.58Z"/></g><path id="mug" d="M1534.3,1219.61c44.41-17.17,35.46-95.24-14.8-92.31-3.41-.11-6.16-.76-7.36-3.87-.44-1.12-.64-2.5-.77-3.76-.24-7.63-3.39-13.72-9.54-18.02-31.59-18.43-142.91-23.23-166.33,6.29-3.02,3.67-3.3,8.98-3.02,13.87,2.3,59.54-16.06,132.45,43.15,153.84,46.45,14.73,120.39,10.1,133.43-45.63,1.57-6.94,5.53-7.85,12.14-7.82,4.29-.23,8.59-.89,12.9-2.52l.19-.07ZM1344.3,1114.05c-2.34-3.96,12.18-7.29,15.93-8.44,41.1-7.62,94.27-11.84,133.04,4.08,5.32,2.24,6.8,4.33.72,6.56-38.76,14.34-111.62,15.75-149.62-2.12l-.06-.08ZM1498.67,1127.84c1.45,1.23,1.58,5.01,1.57,7.41,3.08,86.68,3.6,142.55-85.99,136.11-84.22,2.4-70.27-77.53-70.17-138.89-.08-2.92.59-6.1,4.34-5.24,45.55,15.5,98.53,14.15,144.65.35,1.79-.51,4.17-1.01,5.51.19l.09.08ZM1550.8,1163.47c3.33,21.43-5.87,45.32-30.3,47.54-10.91,1.28-9.63-5.33-8.96-13.46.89-17.49.3-35.16-.39-52.62.07-4.93,3.8-6.07,8.02-5.87,16.13-.08,29.13,8.03,31.6,24.19l.04.22Z"/><path id="insidemug" class="cls-1" d="M1498.56,1113.24c.05,1.17-2.15,2.22-3.4,2.75-30.8,13.02-125.26,17.62-150.47-3.2-.03-1.31,2.46-2.45,3.88-3.03,32.52-13.27,120.73-17.11,149.99,3.42v.07Z"/><g id="steam"><path id="steam_short_line" d="M1393.36,874.69c7.56-7.56,17.82,12.18,20.12,17.81,13.89,34.04-14.6,44-24.2,68.23-11.6,29.28,17.71,38.92,25.07,62.63,4.9,15.77,1.29,34.61-10.31,46.69-7.27,7.57-15.96,3.22-11.63-5.16,4.61-8.91,11.72-11.41,12.82-24.35,2.54-29.81-33.82-36.76-29.67-73.32,3.51-30.92,44.98-43.94,23.4-77.19-2.74-4.22-10.88-10.09-5.62-15.35Z"/><path id="steam_long_line" d="M1441.02,1073.88c-6.14-5.75,4.13-13.12,7.4-17.64,6.14-8.48,10.4-18.71,9.36-29.42-2.23-22.98-29.44-29.09-27.5-59.04.4-6.13,7.36-24.83,12.5-27.91,4.32-2.59,9.91-.21,9.35,5.24-.2,1.9-5.77,9.12-7.16,12.31-13.68,31.54,21.09,39.28,24.03,67.07,1.48,13.95-2.74,26.45-10.54,37.75-2.79,4.04-11.8,16.92-17.44,11.64Z"/></g></g></svg>