<?xml version="1.0" encoding="UTF-8"?><svg id="Layer_2" xmlns="http://www.w3.org/2000/svg" viewBox="0 0 1861.55 1282.82"><defs><style>.cls-1{fill:#fff;}</style></defs><g id="Layer_1-2"><g id="fingersilian"><path d="M1596.36,1030.82c-2.99,2.66-26.97,9.56-33.77,12.79-3.93,1.88-17.62,10.74-27.46,15.16-.43.18-.85.37-1.26.54-4.14,1.75-7.43,2.55-8.74,1.47-2.85-2.35.96-6.78,6.41-11.15.42-.35.86-.69,1.3-1.03,6.65-5.11,14.99-9.92,16.91-11.03,6.99-4.03,37.56-17.99,44.06-15.88,1.26.41,4.1,4.11,4.28,5.43.5,2.02-.44,2.56-1.73,3.7Z"/><path id="MIDDLEFINGER" d="M1537.53,1023.13c6.13-3.4,12.17-7.74,18.69-10.37,4.61-1.86,21.97-5.03,23.98-6.45,3.25-2.31,3.05-7.7-.63-9.4-5.94-2.75-27.61,4.92-33.98,8.01-5.03,2.44-31.54,18.59-22.1,25.33,5.12,3.66,11.77-5.85,14.04-7.12Z"/><path d="M1551.77,988.04c-7.39,2.97-18.16,4.75-26.33,9.96-.6.39-2.11,1.33-3.84,2.29-.46.26-.93.51-1.41.77-2.62,1.35-5.33,2.45-5.98,1.64-2.39-2.99.07-6.85,3.99-10.31.37-.33.75-.66,1.14-.97,3.99-3.26,9.03-6.04,12.1-7.24,5.67-2.22,17.32-5.22,22.59-1.51,2.92,2.06,1.6,3.82-2.26,5.37Z"/></g><g id="pencil_icon"><path d="M1802.87,513.98c-11.99,10.4-28.07,21.65-44.02,24.71-20.43,3.92-14.86-11.02-11.21-24.43,8.77-32.22,24.4-38.5,47-59.82,7.59-7.16,25.13-29.09,33.62-31.83,9.74-3.14,22.58,11.1,28.2,18.38,7.85,10.18,6.09,12.24-1.57,21.51-12.51,15.13-36.91,38.38-52.01,51.47ZM1844.33,454.49c1.01-1.2,2.2-2.88,1.45-4.47l-13.59-12.97-12.1,10.52,15.71,15.7c2-3.44,6.41-6.27,8.54-8.78ZM1773.9,496.19c6.72,1.35,9.31,12,16.81,9.91,5.64-1.57,27.21-29,34.29-33.7l-15.48-13.95c-2.31.4-32.16,28.9-34.27,32.08-1.12,1.69-2.51,3.65-1.35,5.67ZM1760.44,524.55l16.52-9.11c-3.72-1.31-11.76-12.99-13.61-7.05l-2.91,16.16Z"/><path class="cls-1" d="M1773.9,496.19c-1.16-2.02.22-3.98,1.35-5.67,2.11-3.18,31.96-31.67,34.27-32.08l15.48,13.95c-7.08,4.7-28.65,32.13-34.29,33.7-7.5,2.09-10.08-8.56-16.81-9.91Z"/><path class="cls-1" d="M1844.33,454.49c-2.13,2.51-6.54,5.34-8.54,8.78l-15.71-15.7,12.1-10.52,13.59,12.97c.75,1.59-.44,3.27-1.45,4.47Z"/><path class="cls-1" d="M1760.44,524.55l2.91-16.16c1.84-5.94,9.89,5.74,13.61,7.05l-16.52,9.11Z"/></g><path d="M1334,111.74c-1.42,2.3-6.78,5.03-8.49,7.12-19.04,23.32-22.52,46.96-10.32,75.02,6.35,14.6,27.64,29.62,1.66,38.88-42.71,15.23-102.78-17.17-106.2-65.18-.62-8.68,3.38-46.78,16.83-43.44l4.24,4.28c1.33,4.88-4.88,15.89-5.99,21.55-10.19,51.82,44.61,80.32,89.05,69.15-26.16-29.32-28.44-87.8,4.2-113.36,9.93-7.78,22.19-5.67,15.01,5.98Z"/><path id="mouthilian" d="M1397.2,371.01c8.14,8.37-15.24,27.27-21.89,31.08-14.03,8.05-31.88,12.86-48.07,11.51-7.01-.58-30.77-5.78-24.15-15.77,4.94-7.46,11.16-.68,17.92.48,19.71,3.39,38.54.33,54.21-12.86,4.81-4.05,12.54-16.05,18.01-16.16,1.33.33,3.01.74,3.96,1.72Z"/><path id="noseilian" d="M1336.19,354.22c-.62,15.7-34.33,11.63-37.62.29-3.96-13.64,5.42-42.7,7.74-57.8,1.56-10.18-.62-28.14,14.71-12.84,1.17,13.02-12.66,54.56-9.32,64.14,2.63,7.54,19.34.04,24.49,6.21Z"/><path id="righteyebrowilian" d="M1384,223.7c12.4-1.2,24.65.04,36.45,4.05,4.84,1.64,21.5,9.08,10.29,14.53-5.86,2.85-28.34-6.2-38.92-5.9-7.92.23-32.44,8.53-35.66,7.69-5.29-1.37-6.96-7.57-3.28-11.74,3.36-3.8,25.25-8.06,31.12-8.63Z"/><path id="lefteyebrowilian" d="M1289.95,253.05c-18.23-.66-29.87-6.24-48.04.83-5.98,2.33-13.81,11.52-20.86,5.94-13.81-10.93,26.98-22.83,34.87-23.38,11.09-.77,38.82.21,34.03,16.61Z"/><path d="M1544.89,216.06c0,.62-.04,1.21-.11,1.76h0c-1.94,15.33-29.26,3.55-38.06-1.79-3.55-2.15-19.14-14.76-20.49-17.67-1.62-3.49-.09-10.18,3.61-11.37,2.06-.66,3.62-.22,5.5.66,3.72,1.74,12.96,12.73,19.85,16.61,10.33,5.81,20.38,5.65,29.12,11.41.19.12.39.26.58.39Z"/><path id="lefteyeilian" d="M1266.33,276.47c15.35-2.92,19.85,30.33,2.83,34.6-11.43,1.1-17.36-31.83-2.83-34.6Z"/><path id="righteyeilian" d="M1380.46,269.81c17.43-6.03,19.49,29.11,9.45,32.63-17.27,6.06-16.32-30.26-9.45-32.63Z"/><path class="cls-1" d="M1536.22,1068.95c-.79-3.2-1.57-6.42-2.35-9.64-.79-3.22-1.56-6.44-2.33-9.68-1.49-6.19-2.96-12.42-4.43-18.68-.82-3.53-1.65-7.08-2.47-10.63-1.49-6.4-2.97-12.82-4.45-19.26-.67-2.89-1.33-5.78-1.99-8.67-5.08-22.14-10.18-44.43-15.46-66.58-7.44-31.3-15.24-62.34-23.88-92.38-1.37-4.77-2.77-9.51-4.18-14.22-2.18-7.26-4.62-18.38-13.27-19.85h-12.5c8.66,1.47,11.1,12.59,13.28,19.85,24.02,79.99,41.42,168.1,61.53,249.74,2.48,10.06,7.84,19.48,7.2,30,4.17.03,8.33.05,12.5.07.65-10.55-4.72-19.99-7.2-30.07ZM1448.42,1056.24c-3.27,4.52-13.54,11.89-7.4,17.64,5.63,5.27,14.65-7.61,17.44-11.65,7.81-11.3,12.02-23.8,10.54-37.75-2.94-27.78-37.71-35.53-24.03-67.06,1.38-3.19,6.96-10.42,7.16-12.31.56-5.45-5.04-7.83-9.35-5.24-5.14,3.08-12.1,21.78-12.5,27.91-1.94,29.94,25.27,36.05,27.5,59.04,1.04,10.7-3.22,20.93-9.36,29.42ZM1349.41,1097.79c48.86.31,97.72.67,146.58.97-32.22-13.69-110.82-17.68-146.58-.97ZM1405.24,1040.55c-1.1,12.94-8.2,15.43-12.82,24.35-4.33,8.37,4.36,12.72,11.63,5.16,11.6-12.08,15.2-30.92,10.31-46.69-7.37-23.72-36.67-33.36-25.08-62.64,9.6-24.23,38.1-34.19,24.2-68.23-2.3-5.64-12.56-25.38-20.12-17.81-5.26,5.26,2.88,11.12,5.62,15.34,21.57,33.26-19.89,46.27-23.41,77.2-4.15,36.56,32.21,43.5,29.67,73.32ZM1085.3,1097.41c29.14-.18,58.29-.26,87.42-.27-29.21-.01-58.44.04-87.66.21l.24.06Z"/><path class="cls-1" d="M1523.72,1068.95c-20.11-81.64-37.51-169.75-61.53-249.74-2.18-7.26-4.62-18.38-13.28-19.85h-448.87l71.97,294.77,13.03,3.22h.02c29.22-.17,58.45-.22,87.66-.21h4.16c57.53,0,115.03.29,172.53.65,35.76-16.71,114.36-12.72,146.58.97,11.64.07,23.29.14,34.93.19.64-10.52-4.72-19.94-7.2-30ZM1414.36,1023.37c4.89,15.77,1.29,34.61-10.31,46.69-7.27,7.56-15.96,3.21-11.63-5.16,4.62-8.92,11.72-11.41,12.82-24.35,2.54-29.82-33.82-36.76-29.67-73.32,3.52-30.93,44.98-43.94,23.41-77.2-2.74-4.22-10.88-10.08-5.62-15.34,7.56-7.57,17.82,12.17,20.12,17.81,13.9,34.04-14.6,44-24.2,68.23-11.59,29.28,17.71,38.92,25.08,62.64ZM1458.46,1062.23c-2.79,4.04-11.81,16.92-17.44,11.65-6.14-5.75,4.13-13.12,7.4-17.64,6.14-8.49,10.4-18.72,9.36-29.42-2.23-22.99-29.44-29.1-27.5-59.04.4-6.13,7.36-24.83,12.5-27.91,4.31-2.59,9.91-.21,9.35,5.24-.2,1.89-5.78,9.12-7.16,12.31-13.68,31.53,21.09,39.28,24.03,67.06,1.48,13.95-2.73,26.45-10.54,37.75Z"/><path d="M1650.57,882.59c-4.54-17.55-6.83-39.06-10.77-57.12-9.46-43.32-24.62-97.31-26.16-141.14-.26-7.53,3.34-20.67,10.78-10.68,3.78,5.07,6.13,42.12,7.77,51.82,2.63,15.41,7.46,30.42,8.48,46.15l24.45,105.56,150.74-41.42c-17.5-57.42-31.63-116.3-51.3-173.04-23.16-66.81-40.77-102.5-108.28-131.84-45.95-19.97-96.87-31.03-143.57-49.38-15.28,107.74-194.8,141.58-193.84,6.62-2.89-.28-5.53.02-8.33.79-17.53,4.83-58.42,26.67-76.75,35.87-80.03,40.14-98.29,61.08-124.48,147.11-11.3,37.16-19.1,75.49-30.65,112.57h114.31c-2.63-16.25-5.99-32.7-8.07-49.05-2.22-17.4-6.74-44.51-6.97-61.04-.05-3.18-.3-7.03,2.46-9.27l8.92-.37,16.99,119.64,234.4.02c12.7,1.39,23.89,2.07,29.43,15.29l8.73,33.75c-1.37-4.77-2.77-9.51-4.18-14.22-2.18-7.26-4.62-18.38-13.27-19.85h-12.5c8.66,1.47,11.1,12.59,13.28,19.85,24.02,79.99,41.42,168.1,61.53,249.74,2.48,10.06,7.84,19.48,7.2,30,4.17.03,8.33.05,12.5.07.65-10.55-4.72-19.99-7.2-30.07-.79-3.2-1.57-6.42-2.35-9.64.41-.17.83-.36,1.26-.54-.73-3.24-1.5-6.68-2.29-10.17-1.39-6.2-2.82-12.56-4.1-18.22-1-4.46-1.9-8.48-2.62-11.66-1-4.46-1.63-7.25-1.63-7.25-1.07-4.14-2.08-8.06-2.89-11.18-.55-2.14-1-3.92-1.31-5.11l-.07-.26s0,.01.01.01c-.05-.22-.1-.41-.15-.58,0-.02,0-.03-.01-.05l-.02-.08c-.01-.06-.02-.11-.04-.15v-.02c-.02-.06-.03-.12-.05-.17l-.05-.2c-.01-.05-.02-.09-.03-.12l-.02-.1-.52-2.04c-.39.31-.77.64-1.14.97-5.08-22.14-10.18-44.43-15.46-66.58l8.23,31.81c30.2-9.67,60.28,1.12,90.33-1.01,23.99-1.7,49.51-9.94,73.75-11.57l-10.15-54.43c-6.62-.17-12.4-.55-14.33-8.02ZM1544.31,215.67c.16.72.32,1.43.47,2.15.07-.55.11-1.14.11-1.76-.19-.13-.39-.27-.58-.39ZM1501.83,1101.64c-1.67-.98-3.57-1.91-5.67-2.81h-.01c-48.97-.28-97.93-.64-146.91-.96-5.89,2.77-10.6,6.11-13.74,10.06-.88,1.07-1.53,2.29-2,3.6,3.77.04,7.54.08,11.31.12h.46c50.86.51,101.73,1.13,152.66,1.74.21,0,.42,0,.63.01,3.96.04,7.92.09,11.89.14-1.35-4.82-4.21-8.82-8.62-11.9ZM1085.06,1097.35l.24.06c29.14-.18,58.29-.26,87.42-.27-29.21-.01-58.44.04-87.66.21ZM630.14,247.85c-.84,3.78-1.65,7.67-2.43,11.66,5.48-.88,5.1-6.98,2.43-11.66ZM381.89,985.13l-3.21,12.67c2.59,2.8,8.81,9.19,10.45,8.02,5.57-3.99-.81-13.76-7.24-20.69ZM373.78,1017.19l-3.88,15.31c3.04,4.03,7.34,9.15,11.92,6.84,7.43-3.74.13-13.86-8.04-22.15ZM364.84,1052.49l-3.44,13.59c7.12,4.79,13.48,8.16,15.86,6.65,5-3.17-3.74-12.57-12.42-20.24ZM357.96,1079.67c-13.1-7.36-32.29-13.91-36.88-15.74-12.7-5.08-22.28-7.07-31.2-7.87l-4.08,11.67c17.15,2.27,47.96,15.68,68.95,24.6,3.38,1.43,6.51,2.75,9.28,3.89,1.84.76,4.01.37,5.32-1.13,4.04-4.64-2.17-10.23-11.39-15.42ZM233.84,719.9c-4.18-.88-6.02,11.77-6.69,14.81-9.91,44.78-17.07,90.31-26.61,135.19-.06.24-.15.48-.29.69l-2.21,3.53c-.45.71-1.29,1.09-2.12.96l-2.12-.34c-2.65-.42-3.48,3.51-.87,4.13,3.04.72,6.95.54,9.7,1.14.78.17,1.58-.06,2.1-.66l1.1-1.27c.24-.27.4-.61.47-.97l29.6-150.06c.03-.14.08-.28.13-.41.95-2.2-.13-6.3-2.19-6.74ZM357.96,1079.67c-13.1-7.36-32.29-13.91-36.88-15.74-12.7-5.08-22.28-7.07-31.2-7.87l-4.08,11.67c17.15,2.27,47.96,15.68,68.95,24.6,3.38,1.43,6.51,2.75,9.28,3.89,1.84.76,4.01.37,5.32-1.13,4.04-4.64-2.17-10.23-11.39-15.42ZM321.08,1063.93c-12.7-5.08-22.28-7.07-31.2-7.87l-4.08,11.67c17.15,2.27,47.96,15.68,68.95,24.6l3.21-12.66c-13.1-7.36-32.29-13.91-36.88-15.74ZM1520.08,994.35c.02.06.03.13.05.2l.09.37s0,.01.01.01c-.05-.22-.1-.41-.15-.58Z"/><path d="M1833.86,941.12c-2.96-29.94-10.67-61.18-14.83-91.1.28-1.03,11.8-2.98,11.44-11.28-16.29-55.43-30.64-111.69-48.94-166.49-25.31-75.84-42.84-120.87-120.29-154.6-48.67-21.19-102.57-32.72-152.3-51.44-6.19-3.89-10.01-15.76-12-22.77-8.12-28.72-9.66-61.43-7.37-91,24.39-1.68,44.92-24.44,48.88-48,.92-5.44-.24-13.56,1.01-17.2.5-1.43,12.17-11.59,14.41-15.4,12.22-20.75,5.84-49.62,1.92-71.74,16.92-.05,36.38-20.84,28.58-37.72-2.98-6.45-19.41-9.94-26.16-13.6-28.47-15.44-26.17-39.95-36.91-65.75-22.47-53.97-84.78-84.45-141.15-65.91-6.24,2.05-16.47,9.25-21.92,8.81-6.66-.55-23.14-12.59-30.69-15.81-42.83-18.26-89.35-11.67-124.65,18.58-23.45,20.09-36.82,59.19-64.59,71.21-11.47,4.96-34.86,5.17-42.17,14.14-14.27,17.49,8.16,40.84,25.6,44.65-22.25,29.53-16.89,67.21,16.48,85.33,7.38,4.01,43.3,17.81,39.2.64-1.34-5.58-22.12-7.87-28.99-10.85-27.17-11.8-35.15-43.79-15.12-66.08,4.15-4.62,17.3-11.45,16.36-16.29-1.47-7.58-12.35-4.08-16.71-4.66-8.28-1.11-29.41-10.88-25.96-21.77,1.77-5.57,26.52-8.07,32.93-10.26,36.96-12.63,44.82-52.27,72.15-75.23,45.4-38.16,97.66-27.85,144.21,1.53,10,1.53,17.81-6.22,26.74-9.49,44.55-16.3,96.36,4.98,119.41,45.48,15.03,26.4,12.06,56.76,38.57,77.34,5.78,4.49,29.39,13.65,29.78,15.28,4.37,18.27-29.16,15.19-31.33,21.57.91,7.82,3,16.08,4.86,24.43.19.12.39.26.58.39,0,.62-.04,1.21-.11,1.76h0c3.79,17.54,6,35.32-6.42,50.11-3.71-5.67-10.63-24.34-16.91-26.19-10.54-3.1-11.78,9.7-16.31,16.17-6.7,9.56-16.03,16.33-27.21,19.97-5.39-13.09-8.26-27.15-8.29-41.4,7.2,4.37,25.79,11.61,30.72,1.64,4.29-8.66-18.13-10.98-22.41-12.44-19.54-6.69-31.5-21.88-38.97-40.52-2.05-5.13-1.04-18.5-10.82-15.88-9.48,2.55-4.96,12.9-8.12,15.17-31.43,8.68-65.42-25.43-62.94-56.19.58-7.15,4.79-18.49,8.45-24.75,3.88-6.6,26.15-24.45,18.03-30.21-8.46-6-25.49,15.66-29.62,21.93-33.69,51.1,18.5,118.75,75.74,101.64,2.51,5.64,6.72,13.96,10.39,18.71,2.98,3.87,13.77,11.91,15.06,14.67,2.52,5.39.57,12.54,1.43,18.44,1.37,9.43,5.99,37.6,14.74,41.56,11.87,5.39,43.29-15.58,46.37-28.93,3.51-2.38,7.84,16.91,8.08,19.21,2.14,20.24-7.56,55.6-32.12,56.98-5.52.31.73-12.36.74-16.01.04-9.52-11.17-10.2-14.41.66-10.88,36.34-4.99,109.5,10.33,144.46,3.79,8.66,9.01,7.07,7.08,20.27-5.57,38.15-51.69,71.95-88.44,75.53-49.95,4.87-75.93-26.93-76.83-74.3,31.41,2.35,59.55-10.44,83.18-29.89,6.59-5.42,29.79-25.84,25.38-34.66-8.66-10.47-16.53,7.93-22.46,14.09-61.78,64.12-145.39,41.9-181.74-35.24-14.36-45.33-27.31-98.25-35.05-145.42-3.15-19.15-2.63-38.91-4.75-58.16l-3.73-4.63c-5-2.43-32.96,9.55-37.99,13.4-3.5,2.67-9.39,8.67-4.36,12.44,7.47,5.6,25.26-10.29,34.08-10.05-2.59,35.62,9.06,69.53,16.12,103.91,11.6,56.38,15.11,105.87,61.88,146.76l32.99,20.81c-43.56,22.17-94.65,39.26-133.3,69.6-42.71,33.53-55.01,79.15-69.65,129.06-10.09,34.41-17.95,69.71-27.31,104.32h-51.36c-.44-12.3,4.71-33.85,1.33-45.2-1.01-3.38-9.2-6.12-12.09-6.12h-57.16c1.81-4,1.9-8.34,3.24-12.5,19.62-61.34,77.48-90.5,90.43-154.64l28.43-111.61c-1.89-17.36-35.53,7.57-41.74,12.23-68.81,51.65-92.71,135.17-98.56,217.7-1.17,16.48-.79,33.92-1.67,50.48h-9.95c-.67-27.7-4.1-59.36-1.63-86.89,3.89-43.26,27.06-85.74,29.78-132.49,3.39-58.2-29.57-147.97-67.95-191.98-5.16-5.91-11.23-9.82-16.1-1.27-6.94,48.24-21.13,102.24-10.93,150.79,6.13,29.17,21.24,55.54,30.86,83.39,20.1,58.22,21.39,117.55,24.39,178.45l-9.94-.02c-11.86-109.84-24.01-227.06-117.29-299.54-7.19-5.6-32.62-24.1-40.56-22.96-3.53.51-6.75,3.21-6.28,7.07,4.59,17.29,10.38,34.5,14.53,51.88,9.84,41.2,14.71,91.53,35.61,128.32,14.82,26.1,38.01,44.98,55.97,68.23,14.68,19.01,28.92,41.88,34.82,65.36h-42.25c-5.69,0-4.32,21.08-4.12,25.64.28,6.64,3.14,17.2,2.98,23.6-.05,2.04-.63,2.55-2.17,3.74h-59.64c-.38,0-.9,1.24-1.66,1.29l-2.18-2.42c-13.85-50.86-26.56-104.35-45-153.69-19.41-51.95-42.98-73.62-91.67-98.77-35.5-18.34-77.1-33.76-115.43-44.42l33.08-9.14c77.86-34.12,77.45-122.04,93.27-193.2,1.37-6.19,5.76-27.74,8.09-31.65,1.43-2.41,15.77-9.85,19.66-13.46,24.3-22.57,31.1-62.82,12.95-90.82-2.49-3.85-11.27-10.9-11.37-15.13,7.71-4.04,28.91-20.17,21.68-30-6.61-3.76-15.59,1.39-24.05,1.01-37.43-1.65-59.83-36.04-88.84-53.69-36.13-21.99-84.68-27.25-123.57-9.52-6.71,3.05-24.31,15.87-28.27,16.58-5.6,1-25.58-3.8-36.11-3.12-77.23,5.01-115.14,102.59-96.41,169.31,1.28,4.55,7.85,15.98,7.77,18.67-.07,2.53-6.1,9.57-7.77,13.67-13.8,33.73,1.78,77.64,35.48,92.79,6.64,2.98,12.84,3.08,18.84,6.36-4.51,36.59-6.9,74.24-20.11,108.87-2.49,3.44-24.3,7.23-30.54,9.21-40.41,12.85-85.92,29.8-123.98,48.27-75.44,36.63-88.89,68.94-114.89,145.11-17.98,52.65-32.42,106.67-47.87,160.1.2,8.07,14.35,6.73,14.28,8.3-5.73,40.36-16.16,82-19.89,122.5-1.96,21.37-4.49,53.75,4.66,73.13,14.75,31.28,52.88,37.14,83.89,38.67,24.85,1.23,50.74-.93,75.43-3.37-3.05,10.21-1.52,20.38,9.16,24.79l159.25,28.07c135.64-9.8,272.75-9.17,408.86-11.55,25.48-.44,60.49,3.19,84.41-.07,9.89-1.35,18.61-7.15,20.88-17.21l33.12-139.91c30.69-2.5,66.65,3.39,96.71-.19,10.12-1.21,22.04-6.98,26.69-16.39l38.85,161.51c3.51,7.36,11.27,12.76,19.28,13.84,90.4-.36,180.42.2,270.43,1.08.47-1.31,1.12-2.53,2-3.6,3.14-3.95,7.85-7.29,13.74-10.06-57.44-.37-114.89-.68-172.36-.73h-4.16c-29.13.01-58.28.09-87.42.27l-.24-.06h-.02c-4.08,0-8.15.03-12.23.06l-13.29-3.28-71.97-294.77h473.86c8.65,1.47,11.09,12.59,13.27,19.85,1.41,4.71,2.81,9.45,4.18,14.22l-8.73-33.75c-5.54-13.22-16.73-13.9-29.43-15.29l-234.4-.02-16.99-119.64-8.92.37c-2.76,2.24-2.51,6.09-2.46,9.27.23,16.53,4.75,43.64,6.97,61.04,2.08,16.35,5.44,32.8,8.07,49.05h-114.31c11.55-37.08,19.35-75.41,30.65-112.57,26.19-86.03,44.45-106.97,124.48-147.11,18.33-9.2,59.22-31.04,76.75-35.87,2.8-.77,5.44-1.07,8.33-.79-.96,134.96,178.56,101.12,193.84-6.62,46.7,18.35,97.62,29.41,143.57,49.38,67.51,29.34,85.12,65.03,108.28,131.84,19.67,56.74,33.8,115.62,51.3,173.04l-150.74,41.42-24.45-105.56c-1.02-15.73-5.85-30.74-8.48-46.15-1.64-9.7-3.99-46.75-7.77-51.82-7.44-9.99-11.04,3.15-10.78,10.68,1.54,43.83,16.7,97.82,26.16,141.14,3.94,18.06,6.23,39.57,10.77,57.12,1.93,7.47,7.71,7.85,14.33,8.02l10.15,54.43c-24.24,1.63-49.76,9.87-73.75,11.57-30.05,2.13-60.13-8.66-90.33,1.01l-8.23-31.81c5.28,22.15,10.38,44.44,15.46,66.58.37-.33.75-.66,1.14-.97l-4.99-19.87c32.45-7.39,65.61.35,98.54-1.7l125.49-21.93c5.84-2.55,8.4-7.91,3.47-12.87l-53.56,6.7-9.94-54.63,127.56-33.13c3.07,22.95,8.7,45.76,11.58,68.73,10.48,83.4,16.25,136.94-85.37,133.33-21.2-.76-45.61-8.29-64.61-8.42-6.83-.05-18.2.97-25.16,1.3-24.33,1.13-38.52,3.16-64.18,8.02-12.99,2.46-25.56,18.53-38.54,21.72-.22-.93-2.11-9.34-4.5-19.9-.43.18-.85.37-1.26.54.78,3.22,1.56,6.44,2.35,9.64,2.48,10.08,7.85,19.52,7.2,30.07-4.17-.02-8.33-.04-12.5-.07v.07c-11.59-.06-23.17-.12-34.76-.19,2.1.9,4,1.83,5.67,2.81,4.41,3.08,7.27,7.08,8.62,11.9,12.59.14,25.19.29,37.79.44,28.22.32,50.48-4.55,77.49-10.45,18.71-4.08,55.65-10.99,71.8-17.64,7.43-3.05,11.61-10.73,12.32-18.35,37.37,4.93,90.85,8.91,114.01-27.58,15.16-23.87,12.74-71.19,10-98.84ZM347.29,438.47c6.56-29.62,10.11-61.28,10.82-91.63-10.93-5.43-23.09-6.45-33.74-12.98-25.05-15.36-32.48-55.72-15.75-79.72,12.06-17.3,33.66-13.88,46.1,1.39,8.29,10.17,15.46,40.41,29.54,19.58,10.62-15.7,11.09-40.51,16.09-58.43,29.44-15.06,51.22-41.1,55.44-74.55l28.7,16.83c24.34,10.07,51.71,14.65,74.5,28.18,7.72,4.58,13.95,11.28,21.9,14.54,13.37-.34,12.34-39.28,5.76-47.96l22.35,14.9c17.52,18.45,25.63,41.51,24.1,67.1-1.04,3.89-2.02,7.94-2.96,12.13,2.67,4.68,3.05,10.78-2.43,11.66-17.35,88.59-21.95,223.77-139.61,212.04-21.06-2.1-55.8-19.47-71.52-33.66-4.77-4.31-19.41-25.44-22.08-26.76-6.77-3.34-13.26-1.02-10.86,7.5,3.4,12.09,30.94,35.5,41.81,42.69,22.02,14.58,48.35,24.33,75.06,25.16-6.22,12.99-5.71,27.62-4.16,41.6-47.55,46.48-150.77,15-169.87-47.26,14.76-6.45,17.56-27.72,20.81-42.35ZM193.8,874.74l2.12.34c.83.13,1.67-.25,2.12-.96l2.21-3.53c.14-.21.23-.45.29-.69,9.54-44.88,16.7-90.41,26.61-135.19.67-3.04,2.51-15.69,6.69-14.81,2.06.44,3.14,4.54,2.19,6.74-.05.13-.1.27-.13.41l-29.6,150.06c-.07.36-.23.7-.47.97l-1.1,1.27c-.52.6-1.32.83-2.1.66-2.75-.6-6.66-.42-9.7-1.14-2.61-.62-1.78-4.55.87-4.13ZM761.5,797.84l-319.85,3.13c-7.9.96-13.61,6.28-16.51,13.3l-43.25,170.86c6.43,6.93,12.81,16.7,7.24,20.69-1.64,1.17-7.86-5.22-10.45-8.02l-4.9,19.39c8.17,8.29,15.47,18.41,8.04,22.15-4.58,2.31-8.88-2.81-11.92-6.84l-5.06,19.99c8.68,7.67,17.42,17.07,12.42,20.24-2.38,1.51-8.74-1.86-15.86-6.65l-3.44,13.59c9.22,5.19,15.43,10.78,11.39,15.42-1.31,1.5-3.48,1.89-5.32,1.13-2.77-1.14-5.9-2.46-9.28-3.89l-2.53,10.01c-10.02-6.56-19.11-9.62-30.61-12.45-40.82-10.03-83.04-15.83-124.25-24.01.01-2.79,5.51-3.15,7.43-3.3,20.21-1.62,32.08,3.58,49.73,4.94,10.48.81,20.23-1.25,31.28.21l4.08-11.67c-12.9-1.16-24.42.17-42.02-1.74-7.52-.81-15.96-5.24-23.6-6.2-16.49-2.06-38.75,4.68-55.92,6.17-25.27,2.2-57.51,3.11-82.88,1.74-87.64-4.73-74.46-58.94-65.16-126.5,4.08-29.62,10.81-59.12,14.71-88.78l127.55,29.81-12.33,69.62c-1.32,1.92-4.54,1.72-6.72,1.7-10.5-.13-51.6-9.89-57.32-2.78-2.66,3.08-1.58,9.91,2.19,11.48l159.51,19.28c44.05,4.79,86.85-23.01,129.05-1.52,2.05-.35,10.5-34.95,11.76-39.83,9.41-36.44,15.88-81.21,28.16-115.9,4.74-13.39,17.92-19.34,31.4-19.93l179.81.07c.83-18.08,4.5-35.9,6.61-53.83.84-7.21,2.51-52.7,7.49-53.78l4.17,4.1c-2.14,27.67-7.42,55.25-9.98,82.82-.39,4.19-1.44,13.53-1.35,16.94.05,2.04.62,2.55,2.17,3.74h128.38l-4.06,5.1ZM939.51,702.54c-1.23-29.74,7.94-83.27,17.42-111.74,16.39-49.17,48.85-96.97,93.55-124.2l-26.58,105.04c-13.51,54.72-68.56,82.22-82.75,136.66-2.9.38-1.55-3.76-1.64-5.76ZM896.91,564.63c-11.49-37.7-33.57-72.19-36.71-112.31-2.82-36.07,5.23-74.26,9.74-109.87,3.19-.79,3.19,1.18,4.65,2.78,25.09,27.32,53.2,103.82,56.42,140.62,3.97,45.28-11.48,84.98-21.34,128.08-2.45.42-2.07-3.1-2.47-4.93-3.29-14.75-5.88-29.9-10.29-44.37ZM869.68,692.83c-34.01-60.59-76.5-75.3-95.7-151.03-9.09-35.86-14.14-72.87-24.97-108.31,99.74,57.2,118.69,175.02,130.84,279.78l-10.17-20.44ZM1000.81,784.47c-12.83-.6-27.42,2.08-28.24,17.43,4.88,34.68,20.77,71.75,24.99,105.98,1.16,9.4-3.69,25.39-14.24,27.14-15.45,2.55-41.01-.39-57.96.03-11.25.27-24.71,3.48-36.43,1.73-2.26-.34-2.82.95-2.49-2.5l31.15-138.63c-3.25-8.62-10.46-10.11-18.88-10.98-17.91-1.87-37.05,3.04-55.11,1.27l-3.49-37.9h162.35l-1.65,36.43ZM1694.47,1071.25c-2.97,1.64-8.89,3.06-12.44,4.11-28.33,8.34-80.78,22.34-109.07,25.1-6.25.61-28.96,2.64-28.75-5.6l31.87-21.48c25.44-9.26,59.2-9.16,75.66-9.97,24.85-1.23,37.29,1.14,44.83,4.17.7,3.74-.2,2.63-2.1,3.67Z"/><path class="cls-1" d="M1664.9,890.61l10.15,54.43c-24.24,1.63-49.76,9.87-73.75,11.57-30.05,2.13-60.13-8.66-90.33,1.01l-8.23-31.81-23.88-92.38-8.73-33.75c-5.54-13.22-16.73-13.9-29.43-15.29l-234.4-.02-16.99-119.64-8.92.37c-2.76,2.24-2.51,6.09-2.46,9.27.23,16.53,4.75,43.64,6.97,61.04,2.08,16.35,5.44,32.8,8.07,49.05h-114.31c11.55-37.08,19.35-75.41,30.65-112.57,26.19-86.03,44.45-106.97,124.48-147.11,18.33-9.2,59.22-31.04,76.75-35.87,2.8-.77,5.44-1.07,8.33-.79-.96,134.96,178.56,101.12,193.84-6.62,46.7,18.35,97.62,29.41,143.57,49.38,67.51,29.34,85.12,65.03,108.28,131.84,19.67,56.74,33.8,115.62,51.3,173.04l-150.74,41.42-24.45-105.56c-1.02-15.73-5.85-30.74-8.48-46.15-1.64-9.7-3.99-46.75-7.77-51.82-7.44-9.99-11.04,3.15-10.78,10.68,1.54,43.83,16.7,97.82,26.16,141.14,3.94,18.06,6.23,39.57,10.77,57.12,1.93,7.47,7.71,7.85,14.33,8.02Z"/><path id="mouth_greg" d="M474.42,369.16c7.01-1.98,11.21,8.5,16.26,12.96,17.33,15.33,44.91,17,65.87,8.54,9.09,6.09,3.68,11.61-4.3,15.01-21.12,9-50.89,2.38-68.21-11.95-4.74-3.92-21.94-21.08-9.62-24.57Z"/><path id="nosegreg" d="M543.91,286.39c3.73-1.25,8.13-.54,9.01,3.73-.41,20.04,24.94,68.72-6.4,73.4-26.72,3.98-28.03-15.94-1.45-13.03l2.48-2.48c1.06-3.19-.94-19.91-1.59-24.43-1.03-7.2-10.88-34.23-2.04-37.18Z"/><path id="lefteyebrowgreg" d="M476.15,223.67c8.52-1.08,47.17-.54,43.24,13.3-2.51,8.83-18.74.38-25.64-.26-10.1-.94-16.56.52-25.97,3.44-4.23,1.31-18.08,11.39-17.89-1.17.14-9.63,18.69-14.34,26.26-15.3Z"/><path d="M627.71,259.51c-.37.06-.77.1-1.2.11-3.36.08-18.51-12.42-27.29-14.11-7.8-1.49-23.74,1.58-27.24-.88-12.02-8.46,13.49-14.97,19.64-14.82,8.44.2,31.12,9.12,36.75,15.54.66.75,1.25,1.6,1.77,2.5,2.67,4.68,3.05,10.78-2.43,11.66Z"/><path id="earisnidelinegreg" d="M357.48,314.07c-3.25-6.88-4.23-14.49-7.6-21.36-4.62-9.41-22.89-20.69-11.29-27.84,11.31-3.13,23.62,22.14,26.55,30.81,3.34,9.88,7.33,18.15-7.66,18.39Z"/><path id="lefteye_greg" d="M482.71,271.5c19.96-1.34,12.39,46.11-3.78,36.28-10.5-6.38-7.39-30.61,3.78-36.28Z"/><path id="righteye_greg" d="M585.39,279.8c15.03-4.57,15.72,25.57,7.19,33.73-15.87,15.2-21.29-29.44-7.19-33.73Z"/><path class="cls-1" d="M236.03,726.64c-.05.13-.1.27-.13.41l-29.6,150.06c-.07.36-.23.7-.47.97l-1.1,1.27c-.52.6-1.32.83-2.1.66-2.75-.6-6.66-.42-9.7-1.14-2.61-.62-1.78-4.55.87-4.13l2.12.34c.83.13,1.67-.25,2.12-.96l2.21-3.53c.14-.21.23-.45.29-.69,9.54-44.88,16.7-90.41,26.61-135.19.67-3.04,2.51-15.69,6.69-14.81,2.06.44,3.14,4.54,2.19,6.74Z"/><g id="fingersgreg"><path id="LOWERFINGER" d="M377.26,1072.73c-2.38,1.51-8.74-1.86-15.86-6.65-10.22-6.87-22-16.66-25.8-19.08-7.54-4.81-34.8-16.46-37.93-20.03-1.35-1.54-2.38-2.31-1.5-4.63.41-1.52,4.3-5.47,5.84-5.77,7.98-1.53,41.98,19.41,49.62,25.18,1.62,1.22,7.4,5.59,13.21,10.74,8.68,7.67,17.42,17.07,12.42,20.24Z"/><path id="MIDDLEFINGER-2" d="M381.82,1039.34c-4.58,2.31-8.88-2.81-11.92-6.84-1.39-1.85-2.51-3.47-3.27-4.06-6.59-5.1-12.89-11.3-20.07-15.57-5.07-3.02-24.88-9.89-26.98-11.93-3.39-3.3-2.18-9.59,2.45-10.92,7.48-2.15,31.53,10.78,38.45,15.57,2.17,1.5,7.92,6.15,13.3,11.6,8.17,8.29,15.47,18.41,8.04,22.15Z"/><path id="UPPERFINGER" d="M389.13,1005.82c-1.64,1.17-7.86-5.22-10.45-8.02-.38-.41-.68-.75-.88-.97-7.66-8.59-21.25-10.52-28.75-16.3-3.91-3.01-3.01-9.02.99-10.43,7.22-2.56,19.58,4.63,25.35,9,1.79,1.35,4.14,3.5,6.5,6.03,6.43,6.93,12.81,16.7,7.24,20.69Z"/></g><g id="code_icon"><rect x="62.41" y="452.96" width="101.96" height="14.29" rx="3.67" ry="3.67" transform="translate(-360.42 452.35) rotate(-75.22)"/><path d="M136.72,487.31c-3.39-7.3,16.29-16.94,27.09-23.52,3.82-2.32,4.02-7.78.42-10.43-10.58-7.81-30.75-20.11-17.99-26.37,2.14-1.05,4.7-.74,6.62.68,10.02,7.41,30.81,20.31,33.06,27.27,2.57,7.97-2.09,11.05-7.7,15.67-4.45,3.67-33.94,19.63-36.57,19.29h-.48c-1.85.03-3.67-.91-4.45-2.58Z"/><path d="M92.17,487.49c3.39-7.3-16.29-16.94-27.09-23.52-3.82-2.32-4.02-7.78-.42-10.43,10.58-7.81,30.75-20.11,17.99-26.37-2.14-1.05-4.7-.74-6.62.68-10.02,7.41-30.81,20.31-33.06,27.27-2.57,7.97,2.09,11.05,7.7,15.67,4.45,3.67,33.94,19.63,36.57,19.29h.48c1.85.03,3.67-.91,4.45-2.58Z"/></g><path id="mug" d="M1519.5,1127.3c-3.41-.11-6.16-.77-7.36-3.88-.44-1.12-.64-2.5-.77-3.75-.07-2.17-.37-4.22-.92-6.13-1.35-4.82-4.21-8.82-8.62-11.9-1.67-.98-3.57-1.91-5.67-2.81h-.01s-.1-.05-.16-.07c-32.22-13.69-110.82-17.68-146.58-.97-.06.03-.12.05-.17.08-5.89,2.77-10.6,6.11-13.74,10.06-.88,1.07-1.53,2.29-2,3.6-1.14,3.15-1.22,6.82-1.02,10.27,2.3,59.54-16.05,132.46,43.16,153.84,46.45,14.73,120.39,10.1,133.43-45.62,1.57-6.95,5.53-7.86,12.14-7.82,4.29-.23,8.59-.89,12.9-2.52l.19-.07c44.41-17.17,35.46-95.25-14.8-92.31ZM1360.23,1105.61c2.03-.38,4.08-.74,6.16-1.1.03,0,.07-.01.1-.02,19.73-3.38,41.8-5.83,63.51-5.66.38,0,.76.01,1.14.02,1.29.02,2.59.05,3.89.09,6.78.17,13.5.61,20.09,1.41.54.06,1.08.12,1.63.19,10.96,1.39,21.51,3.69,31.27,7.15.1.04.19.08.29.11,1.69.6,3.32,1.22,4.95,1.89,2.37,1,3.98,1.97,4.5,2.93,0,.01.01.02.01.02.13.25.19.5.16.75-.08.94-1.31,1.89-3.95,2.86-6.31,2.34-13.53,4.33-21.36,5.95-.08.01-.17.03-.25.05-19.8,4.09-43.48,5.79-66.18,4.68-.26,0-.5-.01-.75-.03-.02.01-.03.01-.05,0h-.01c-19.53-1-38.31-4.1-53.26-9.55-.01,0-.02-.01-.03-.01-2.71-1-5.29-2.06-7.73-3.21l-.06-.08c-.49-.83-.24-1.64.51-2.4,2.78-2.86,12.46-5.13,15.42-6.04ZM1500.58,1195.93s0,.08-.01.12t0,.02v.02s.01.03,0,.04c-1.61,26.48-7.02,47.13-21.27,60.12-13.02,11.88-33.42,17.38-65.05,15.1-26.49.76-43.27-6.64-53.82-19.04-10.64-12.5-14.95-30.05-16.5-49.47v-.08c-1.52-19.08-.39-39.96,0-59.6v-.18c.08-3.56.13-7.07.14-10.52-.08-2.65.47-5.51,3.37-5.37h.02c.29.01.61.05.95.13,45.55,15.5,98.53,14.15,144.65.35,1.79-.51,4.17-1.01,5.51.18l.09.09c1.45,1.23,1.58,5.01,1.57,7.4.8,22.48,1.43,42.9.34,60.69ZM1520.5,1211.01c-10.91,1.28-9.64-5.33-8.96-13.46.88-17.49.3-35.16-.4-52.62.08-4.93,3.8-6.07,8.02-5.87,16.13-.08,29.14,8.03,31.6,24.19l.04.22c3.33,21.42-5.87,45.31-30.3,47.54Z"/><path id="insidemug" class="cls-1" d="M1498.56,1113.24c.05,1.17-2.15,2.22-3.4,2.75-30.8,13.02-125.26,17.62-150.47-3.2-.03-1.31,2.46-2.45,3.88-3.03,32.52-13.27,120.73-17.11,149.99,3.42v.07Z"/><g id="steam"><path id="long_line" d="M1414.36,1023.37c4.89,15.77,1.29,34.61-10.31,46.69-7.27,7.56-15.96,3.21-11.63-5.16,4.62-8.92,11.72-11.41,12.82-24.35,2.54-29.82-33.82-36.76-29.67-73.32,3.52-30.93,44.98-43.94,23.41-77.2-2.74-4.22-10.88-10.08-5.62-15.34,7.56-7.57,17.82,12.17,20.12,17.81,13.9,34.04-14.6,44-24.2,68.23-11.59,29.28,17.71,38.92,25.08,62.64Z"/><path id="steam_short_line" d="M1458.46,1062.23c-2.79,4.04-11.81,16.92-17.44,11.65-6.14-5.75,4.13-13.12,7.4-17.64,6.14-8.49,10.4-18.72,9.36-29.42-2.23-22.99-29.44-29.1-27.5-59.04.4-6.13,7.36-24.83,12.5-27.91,4.31-2.59,9.91-.21,9.35,5.24-.2,1.89-5.78,9.12-7.16,12.31-13.68,31.53,21.09,39.28,24.03,67.06,1.48,13.95-2.73,26.45-10.54,37.75Z"/></g><path class="cls-1" d="M670.93,988.01c-3.8-3.56-11.96-.95-13.8,3.6-1.55,3.83-1.02,7.19-3.62,11.33-5.76,9.15-19.7,7.7-24.24-2-5.21-11.14-9.29-24.19-14.14-35.71-1.98-4.7-8.22-16.07-8.62-20.23-1.21-12.52,12.9-19.45,22.28-11.19,2,1.77,2.91,3.94,4.06,6.27,4.16,8.42,7.33,17.38,11.66,25.73,4.04,4.5,13.5,2.89,14.07-3.72.31-3.62-3.72-9.87-4.91-13.6-5.03-15.73,16.32-26.96,25.19-9.83,6.65,12.85,11.45,27.38,18.06,40.34,5.52,15.18-12.69,26.3-22.64,14.05-1.14-1.41-2.17-3.93-3.34-5.03h0Z"/><path d="M1221.71,976.07c-1.17,1.1-2.2,3.62-3.34,5.03-9.95,12.25-28.16,1.14-22.64-14.05,6.61-12.96,11.4-27.49,18.06-40.34,8.87-17.13,30.22-5.9,25.19,9.83-1.19,3.73-5.22,9.99-4.91,13.6.57,6.61,10.03,8.22,14.07,3.72,4.33-8.35,7.5-17.3,11.66-25.73,1.15-2.33,2.06-4.5,4.06-6.27,9.37-8.26,23.48-1.32,22.28,11.19-.4,4.15-6.64,15.53-8.62,20.23-4.85,11.52-8.93,24.57-14.14,35.71-4.54,9.7-18.49,11.15-24.24,2-2.61-4.14-2.07-7.5-3.62-11.33-1.84-4.55-10-7.16-13.8-3.6h0Z"/><path id="coffeewater" d="M1488.58,1117.31c-1.27,1.39-30.6,9.62-72.41,8.12s-67.99-6.98-67.77-13.06,57.99-5.33,64.06-5.36c40.94-.22,88.18-2.91,76.12,10.31Z"/></g></svg>