<?xml version="1.0" encoding="UTF-8"?><svg id="Layer_2" xmlns="http://www.w3.org/2000/svg" viewBox="0 0 601.64 815.43"><g id="Layer_1-2"><g id="ilian"><path d="M351.81,24.39c27.3,26.81,22.19,73.43,50.43,90.98,9.81,6.1,27.3,4.9,18.73,20.87-5.14,9.58-21.44,14.55-31.81,13.68,8.27,14.15,9.76,34.01,2.48,48.92-1.2,2.46-4.87,6.34-5.27,7.73-.81,2.84.15,6.53-.33,9.66-3.73,24.23-19.72,51.98-47.88,48.57,2.32,25.44,1.21,54.03,10.26,78.18,1.53,4.1,3.11,9.77,7.04,11.95,63.85,23.69,143.21,38.01,182.73,99.17,10.67,16.51,18.47,36.39,25,54.95,16.83,47.87,26.45,98.28,38.46,147.51-.94,2.91-3.35,3.79-5.8,5.04-10.31,5.29-27.26,10.05-38.68,13.31-22.19,6.32-44.86,10.41-67.57,14.46l16.32,114.65c-5.53,9.12-6.81-2.69-7.6-7.37-6.05-35.62-9.31-71.85-15.14-107.52-6.2-3.02-6.41-4.16-7.7-10.52-6.7-32.99-10.67-71.95-15.16-105.74-2.45-18.39-4.49-36.88-6.68-55.28,1.08-1.87,3.18-2.41,4.91-1.1,1.57,1.19,4.12,29.76,4.77,34.4,6.12,43.86,12.78,87.65,18.87,131.5,2.87,2.99,59.28-9.85,67.41-12.06,10.13-2.75,21.28-6.22,31.1-9.89,2.41-.9,13.95-5.02,14.31-6.6-14.37-55.93-24.22-115.94-47.65-168.92-36.44-82.4-111.5-94.58-188.92-121.98l-3.22-.19c-4.94,25.04-18.19,47.62-39.31,62.13-39.43,27.1-93.92,18.11-110.74-29.68-1.1-3.13-4.04-16.95-5.6-17.44-28.67,11.44-59.9,23.52-86.69,39.09-43.45,25.26-58.17,57.92-72.71,104.18-13.3,42.32-22.26,86.02-34.05,128.77,42.48,10.65,86.09,18.77,130.07,19.61-.08-2.48.16-5-.02-7.49-3.32-45.95-15.14-95.25-16.98-140.88-.07-1.78-.46-5.14.47-6.51,5.73-3.78,5.81,6.78,6.38,10.65,8.76,59.71,13.54,121.46,21.27,181.55,4.47,34.81,10,69.53,14.61,104.33.07,3.34-.52,5.07-4.12,4.09l-20.05-137.82-13.06-.94c-31.94-2.31-88.96-8.79-118.29-19.69-9.17-3.41-6.25-6.86-4.54-15.09,3.83-18.36,9.63-38.22,14.4-56.55,10.77-41.47,23.57-98.89,48.11-133.76,30.32-43.09,90.08-59.95,135.81-81.62.49-2.3-.27-1.59-1.27-2.23-4-2.53-11.65-4.17-16.4-6.57-58.3-29.38-55.45-112.12-66.21-167.43-10.72-.52-19.81-1.17-29.79-5.39-35.48-15-41.81-57.5-11.32-81.09-13.62,2.01-31.46-6.91-32.89-21.61-.27-2.78-.61-7.81,2.61-9.15,5.3-2.2,17.33-2.33,24.5-4.5,27.83-8.41,34.37-33.6,53.31-50.64,32.62-29.33,77.16-25.82,111.79-2.19,34.52-26.61,85.88-25.39,117.33,5.5ZM416.08,128.02c-15.43-3-27.78-12.49-35.44-26.04-8.48-15-9.75-31.82-16.62-47.33-19.63-44.3-69.94-60.72-112.88-38.13-3.84,2.02-13.5,9.65-16.5,9.59-2.78-.05-14.81-8.35-18.8-10.24-25.18-11.9-53.13-12.67-77.37,1.98-27.05,16.34-34.29,51.42-67.33,60.61-3.77,1.05-22.29,3.02-22.94,5.12,2.43,12.78,14.42,17.53,26.45,16.38,3.75-.36,12.85-5.12,14.4-.31,1.76,5.44-9.89,11.84-13.42,15.29-9.65,9.42-15.1,21.51-13.22,35.23,3.41,24.87,29.72,37.22,52.74,35.71l-5.01-30.96c-3.12.27-5.48,3.64-8.55,1.06l-1.36-2.42c8.78-7.7,11.92-8.72,11.96-21.16.03-8.17-.94-13.41,1.92-21.97,1.22-3.66,11.99-24.01,16.6-17.5,2.37,3.35-2.82,6.29-4.39,8.72-18.35,28.43-3.24,49.74,26.79,56.81,3.57.84,18.34,1.74,19.03,4.98,1.16,5.52-16.23,2.77-19.22,2.2-6.76-1.29-16.3-5.19-22.1-8.9-3.48-2.22-10.53-10.08-12.19-10.8-2.31-1-2.59,5.09-2.58,6.48,11.64,49.67,9.73,112.31,29.91,159.02,25.94,60.03,102.47,69.09,147.83,24.94,2.23-2.17,8.92-13.92,11.89-7.62,1.74,3.69-8.68,13.9-11.53,16.47-23.62,21.34-55.8,28.33-87.02,24.46-1.02,25.71,16.95,54.22,42.36,61.09,40.72,11.02,81.69-15.61,95.37-53.87,1.06-2.97,4.39-14.19,4.23-16.65-.15-2.29-6.82-14.23-8.22-18.78-4.73-15.4-6.66-36.05-7.73-52.22-.46-6.97-2.12-25-.79-30.74,1.8-7.75,6.5-.29,11.53.02,20.65,1.28,35.24-29.8,36.23-47.21.69-12.04-6.43-45.38-23.48-30.45-13.89,12.16-1.38,37.87-25.95,33.9-21.31-3.45-19.87-36.27-29.56-49.39-9.27-12.54-27.62-15.9-39.47-25.51-19.41-15.73-29.16-42.92-17.41-66.28,2.58-5.12,10.46-17.73,16.87-13.59.32,1.51-.15,2.33-.94,3.53-10.02,15.3-16.22,17.15-14.04,38.9,4.05,40.34,51.26,36.88,64.49,66.44,4.16,9.29,4.16,19.5,9.33,28.64,3.89,6.86,11.86,14.65,20.2,9.79-1.91-5.15-6.66-7.89-8.92-13.06-2.44-5.59-5.59-24.42-.7-28.45,6.88-5.66,3.84,9.94,3.97,12.4.37,6.83,2.11,14.7,7.12,19.65,5.91-33.14,36.93-36.98,43.99-2,6.19-12.23,6.25-29.65-2.08-40.87-5.13-6.91-15.55-10.34-15.9-20.12,5.92-6.12,9.05,2.83,13.79,5.25,10.32,5.27,34.04,2.4,34.62-12.1Z"/><path d="M207.16,152.9c-7.43-9.3-9.19-30.09-.05-38.49,3.85-3.54,8.48-.99,6.55,2.53-1.23,2.24-3.68,3.24-4.99,7.01-3.07,8.75-.54,22.19,6.44,28.51,2.11,1.91,5.51,2.1,6.1,4.93.02,6.51-14.54,2.69-18.31,1.27-32.43-12.15-32.86-60.39-17.54-85.98,2.23-3.73,11.05-15.76,15.33-15.66,8.83,3.15-3.27,10.43-6.5,14.48-17.58,22.07-19.07,71.2,12.98,81.39Z"/><path id="mouthilian" d="M180.42,307.51c-1.73-1.79-2.09-6.71,1.19-6.75,2.12-.02,8.72,4.47,11.57,5.48,19.27,6.83,40.71,1.78,56.46-10.49,1.79-1.4,10.64-12.67,12.47-6.36,1.55,5.36-17.68,18.36-22.26,20.56-14.45,6.92-33.87,7.9-48.95,2.57-1.48-.52-9.9-4.4-10.48-5.01Z"/><path id="noseilian" d="M199.74,211.94l2.93.89c2.35,3.47-5.08,28.89-6.23,34.78-.92,4.72-4.21,18.89-3.1,22.5,1.37,4.45,10.13,5.14,14.07,4.44,2.63-.46,9.72-5.39,9.77.75.03,3.73-9.68,6.35-12.64,6.39-4.54.05-13.44-2.77-15.81-6.97-4.17-7.42,1.88-29.94,3.9-38.89.86-3.81,4.28-23.01,7.1-23.88Z"/><path d="M322.25,120.05c4.82-3.25,7.19,9.56,9.47,12.82,4.1,5.87,13.41,12.5,20.21,14.78,4.52,1.51,17.68,2.54,19.74,4.26,2.43,2.03.71,4.48-2.04,4.98-13.19,2.4-31.98-6.39-40.49-16.43-2.68-3.16-11.61-17.21-6.88-20.4Z"/><path id="lefteyeilian" d="M165.91,207.05c12.32-1.11,13.75,29.71-.2,28.76-11-.75-12.37-27.62.2-28.76Z"/><path id="righteyeilian" d="M250.89,205.04c15.96-3.31,14.47,34.64-2,26.56-9.1-4.46-7.21-24.65,2-26.56Z"/><path id="righteyebrowilian" d="M280.81,181.23c.71.71,2.38,3.16,2.24,4.01l-3.38,2.64c-10.24-7.24-22.31-10.38-34.91-8.89-4.9.58-12.12,4.99-15.12,4.96-1.29-.01-1.56.09-1.78-1.34-3.58-8.16,19.51-10.9,24.82-10.77,7.41.17,22.85,4.14,28.12,9.39Z"/><path id="lefteyebrowilian" d="M182.13,186.84c-1.41,1.98-14.36-1.75-17.48-1.94-6.82-.43-15.19.16-21.19,3.78-2.63,1.58-4.57,5.5-6.24,5.82-5.86,1.12-3.35-5.41-1.07-8.13,7.55-8.99,33.74-11.02,43.32-5.28,1.57.94,3.62,4.43,2.67,5.75Z"/><path d="M367.89,197.62c-.85.7-4.18,1.17-6.07,2.41-3.38,2.22-5.54,6.59-6.55,10.43-1.3,4.96-.23,11.38-1.27,14.72-1.29,4.12-5.22.73-5.77-2.9-1.37-9.06,1.59-20.12,8.39-26.45,8.17-7.62,15.69-1.81,11.28,1.79Z"/></g></g></svg>